<svg id="svg" version="1.1" xmlns="http://www.w3.org/2000/svg" xmlns:xlink="http://www.w3.org/1999/xlink" width="400" height="105.55555555555556" viewBox="0, 0, 400,105.55555555555556"><g id="svgg"><path id="path0" d="M20.876 2.617 C 20.486 2.655,19.967 2.790,19.721 2.918 C 19.475 3.045,19.220 3.116,19.154 3.076 C 19.089 3.035,18.996 3.103,18.948 3.227 C 18.901 3.351,18.626 3.500,18.337 3.558 C 18.044 3.616,17.857 3.737,17.915 3.831 C 17.973 3.924,17.871 4.000,17.689 4.000 C 17.508 4.000,17.047 4.319,16.665 4.708 C 16.283 5.098,15.902 5.417,15.818 5.417 C 15.735 5.417,15.666 5.472,15.665 5.540 C 15.664 5.608,15.327 5.972,14.917 6.351 C 14.507 6.729,14.215 7.110,14.269 7.197 C 14.323 7.284,14.228 7.332,14.058 7.303 C 13.844 7.266,13.750 7.351,13.749 7.583 C 13.747 7.944,13.332 8.667,13.127 8.667 C 12.941 8.667,12.333 9.305,12.333 9.500 C 12.333 9.592,12.240 9.648,12.125 9.625 C 11.996 9.599,11.923 9.757,11.935 10.042 C 11.945 10.297,11.864 10.500,11.753 10.500 C 11.643 10.500,11.411 10.762,11.238 11.083 C 11.066 11.404,10.829 11.667,10.712 11.667 C 10.595 11.667,10.500 11.817,10.500 12.000 C 10.500 12.185,10.389 12.333,10.250 12.333 C 10.106 12.333,10.000 12.484,10.000 12.687 C 10.000 12.998,9.966 13.013,9.720 12.812 C 9.471 12.608,9.460 12.617,9.619 12.905 C 9.747 13.137,9.744 13.287,9.607 13.441 C 9.130 13.978,9.056 14.114,9.095 14.381 C 9.118 14.538,9.062 14.667,8.970 14.667 C 8.721 14.667,8.179 15.375,8.172 15.708 C 8.169 15.869,8.066 16.000,7.943 16.000 C 7.801 16.000,7.731 16.177,7.749 16.488 C 7.770 16.833,7.690 16.998,7.479 17.054 C 7.283 17.105,7.202 17.249,7.244 17.470 C 7.280 17.658,7.204 17.847,7.071 17.898 C 6.938 17.950,6.833 18.211,6.833 18.495 C 6.833 18.773,6.756 19.000,6.663 19.000 C 6.569 19.000,6.419 19.192,6.330 19.427 C 6.240 19.661,6.100 19.812,6.017 19.760 C 5.934 19.709,5.867 19.940,5.867 20.272 C 5.867 20.604,5.794 20.923,5.704 20.980 C 5.615 21.037,5.488 21.332,5.422 21.636 C 5.356 21.940,5.196 22.230,5.068 22.279 C 4.929 22.332,4.861 22.524,4.902 22.749 C 4.940 22.959,4.867 23.330,4.740 23.575 C 4.613 23.820,4.491 24.282,4.470 24.602 C 4.448 24.922,4.334 25.264,4.215 25.362 C 4.097 25.460,4.000 25.824,4.000 26.169 C 4.000 26.518,3.907 26.833,3.792 26.878 C 3.667 26.925,3.562 27.350,3.530 27.934 C 3.501 28.471,3.398 29.005,3.303 29.120 C 3.156 29.297,3.078 29.991,3.012 31.718 C 3.004 31.904,2.925 31.974,2.805 31.899 C 2.674 31.818,2.645 31.870,2.716 32.056 C 2.776 32.210,2.742 32.333,2.641 32.333 C 2.512 32.333,2.513 32.398,2.645 32.557 C 2.747 32.680,2.782 32.829,2.723 32.888 C 2.564 33.047,2.558 43.333,2.717 43.333 C 2.792 43.333,2.811 43.402,2.759 43.486 C 2.707 43.570,2.742 43.664,2.837 43.696 C 2.934 43.728,3.035 44.444,3.067 45.335 C 3.105 46.398,3.185 46.903,3.312 46.875 C 3.421 46.851,3.509 47.079,3.521 47.417 C 3.532 47.737,3.548 48.131,3.557 48.292 C 3.565 48.452,3.668 48.643,3.786 48.717 C 3.912 48.795,4.000 49.180,4.000 49.657 C 4.000 50.221,4.075 50.493,4.250 50.560 C 4.393 50.615,4.500 50.864,4.500 51.141 C 4.500 51.408,4.605 51.713,4.734 51.820 C 4.881 51.942,4.955 52.286,4.934 52.746 C 4.916 53.149,4.957 53.443,5.025 53.401 C 5.198 53.294,5.472 53.868,5.376 54.137 C 5.333 54.258,5.456 54.526,5.650 54.733 C 5.844 54.939,5.959 55.152,5.906 55.205 C 5.852 55.259,5.927 55.531,6.071 55.810 C 6.215 56.089,6.333 56.462,6.333 56.641 C 6.333 56.819,6.446 57.008,6.583 57.060 C 6.721 57.113,6.833 57.311,6.833 57.500 C 6.833 57.689,6.930 57.881,7.047 57.926 C 7.165 57.971,7.278 58.212,7.299 58.462 C 7.319 58.712,7.411 58.942,7.501 58.972 C 7.592 59.003,7.667 59.168,7.667 59.339 C 7.667 59.510,7.786 59.717,7.933 59.799 C 8.079 59.881,8.210 60.147,8.224 60.390 C 8.238 60.634,8.344 60.833,8.458 60.833 C 8.648 60.833,8.738 61.048,8.686 61.375 C 8.676 61.444,8.742 61.500,8.833 61.500 C 8.925 61.500,9.000 61.650,9.000 61.833 C 9.000 62.021,9.111 62.167,9.254 62.167 C 9.405 62.167,9.550 62.376,9.611 62.680 C 9.676 63.003,9.760 63.118,9.839 62.991 C 9.924 62.853,9.999 62.901,10.076 63.145 C 10.138 63.340,10.259 63.500,10.345 63.500 C 10.430 63.500,10.500 63.641,10.500 63.813 C 10.500 63.985,10.608 64.216,10.740 64.325 C 10.872 64.435,10.943 64.622,10.897 64.740 C 10.851 64.862,10.966 64.996,11.162 65.047 C 11.353 65.097,11.499 65.201,11.485 65.277 C 11.424 65.626,11.513 66.012,11.637 65.935 C 11.796 65.837,12.333 66.417,12.333 66.686 C 12.333 66.787,12.440 66.828,12.570 66.778 C 12.728 66.718,12.920 66.928,13.148 67.414 C 13.336 67.814,13.643 68.190,13.831 68.249 C 14.018 68.309,14.128 68.427,14.075 68.513 C 14.022 68.599,14.102 68.716,14.253 68.774 C 14.473 68.859,14.483 68.908,14.306 69.021 C 14.141 69.125,14.137 69.162,14.291 69.164 C 14.545 69.167,16.000 70.579,16.000 70.824 C 16.000 70.921,16.090 71.000,16.199 71.000 C 16.308 71.000,16.796 71.411,17.282 71.913 C 17.769 72.415,18.169 72.772,18.172 72.705 C 18.175 72.638,18.309 72.733,18.470 72.917 C 18.630 73.100,18.867 73.274,18.997 73.303 C 19.126 73.331,19.401 73.538,19.608 73.761 C 19.815 73.984,20.063 74.167,20.159 74.167 C 20.255 74.167,20.333 74.284,20.333 74.427 C 20.333 74.569,20.390 74.652,20.458 74.611 C 20.527 74.569,20.675 74.634,20.787 74.755 C 20.947 74.929,20.947 74.996,20.787 75.073 C 20.675 75.127,20.749 75.140,20.952 75.102 C 21.327 75.033,21.755 75.357,21.554 75.557 C 21.494 75.617,21.607 75.667,21.806 75.667 C 22.022 75.667,22.167 75.771,22.167 75.927 C 22.167 76.069,22.242 76.140,22.333 76.083 C 22.425 76.027,22.500 76.110,22.500 76.268 C 22.500 76.426,22.544 76.512,22.598 76.458 C 22.749 76.307,23.678 76.680,23.573 76.850 C 23.522 76.932,23.710 77.000,23.990 77.000 C 24.332 77.000,24.500 77.082,24.500 77.250 C 24.500 77.387,24.612 77.500,24.750 77.500 C 24.887 77.500,24.981 77.594,24.958 77.708 C 24.933 77.834,25.108 77.923,25.396 77.934 C 25.660 77.943,25.946 78.076,26.032 78.229 C 26.117 78.382,26.258 78.463,26.345 78.410 C 26.431 78.356,26.541 78.414,26.589 78.538 C 26.636 78.662,26.841 78.776,27.043 78.791 C 27.245 78.806,27.495 78.934,27.598 79.076 C 27.702 79.217,27.915 79.333,28.072 79.333 C 28.229 79.333,28.470 79.446,28.607 79.583 C 28.745 79.721,29.010 79.833,29.196 79.833 C 29.399 79.833,29.504 79.917,29.456 80.042 C 29.404 80.178,29.553 80.257,29.889 80.269 C 30.171 80.280,30.430 80.374,30.465 80.478 C 30.499 80.582,30.700 80.667,30.910 80.667 C 31.120 80.667,31.386 80.779,31.500 80.917 C 31.614 81.054,31.914 81.167,32.167 81.167 C 32.419 81.167,32.719 81.279,32.833 81.417 C 32.947 81.554,33.299 81.667,33.614 81.667 C 33.953 81.667,34.144 81.735,34.083 81.833 C 34.024 81.929,34.198 82.011,34.490 82.025 C 35.374 82.068,35.413 82.078,35.594 82.310 C 35.697 82.440,36.105 82.541,36.556 82.547 C 36.992 82.553,37.422 82.656,37.524 82.779 C 37.625 82.900,38.030 83.000,38.425 83.000 C 38.820 83.000,39.242 83.096,39.363 83.213 C 39.489 83.335,40.084 83.445,40.750 83.470 C 41.560 83.499,41.975 83.590,42.109 83.767 C 42.259 83.964,42.632 84.016,43.776 83.999 C 48.711 83.928,51.333 84.005,51.333 84.222 C 51.333 84.344,51.443 84.444,51.576 84.444 C 51.709 84.444,51.780 84.382,51.733 84.306 C 51.686 84.229,51.726 84.167,51.823 84.167 C 51.921 84.167,52.000 84.237,52.000 84.323 C 52.000 84.415,53.064 84.467,54.589 84.448 C 56.595 84.424,57.209 84.467,57.316 84.639 C 57.392 84.762,57.502 84.855,57.560 84.848 C 58.385 84.737,60.000 84.870,60.000 85.048 C 60.000 85.201,60.352 85.275,61.208 85.302 C 62.129 85.330,62.468 85.408,62.632 85.628 C 62.751 85.787,62.882 85.898,62.924 85.875 C 63.222 85.712,64.167 85.866,64.167 86.078 C 64.167 86.253,64.340 86.317,64.774 86.300 C 65.163 86.286,65.452 86.375,65.579 86.550 C 65.731 86.757,65.825 86.775,65.972 86.628 C 66.108 86.492,66.167 86.489,66.167 86.618 C 66.167 86.723,66.317 86.763,66.517 86.710 C 66.710 86.660,66.916 86.694,66.975 86.785 C 67.035 86.877,67.383 87.025,67.750 87.115 C 68.117 87.204,68.404 87.346,68.389 87.430 C 68.374 87.514,68.629 87.598,68.957 87.617 C 69.285 87.635,69.605 87.734,69.668 87.836 C 69.732 87.938,69.888 88.041,70.017 88.063 C 70.519 88.151,71.000 88.362,71.000 88.496 C 71.000 88.573,71.162 88.593,71.359 88.541 C 71.584 88.483,71.679 88.512,71.612 88.620 C 71.551 88.719,71.719 88.836,72.003 88.892 C 72.276 88.947,72.500 89.090,72.500 89.209 C 72.500 89.329,72.706 89.444,72.958 89.464 C 73.210 89.484,73.492 89.601,73.583 89.723 C 73.675 89.846,73.837 89.917,73.943 89.881 C 74.049 89.845,74.248 89.977,74.386 90.174 C 74.566 90.430,74.736 90.500,74.985 90.421 C 75.237 90.341,75.333 90.383,75.333 90.572 C 75.333 90.716,75.446 90.833,75.583 90.833 C 75.721 90.833,75.833 90.946,75.833 91.083 C 75.833 91.239,75.991 91.333,76.250 91.333 C 76.479 91.333,76.667 91.403,76.667 91.489 C 76.667 91.574,76.805 91.688,76.973 91.742 C 77.142 91.795,77.371 92.009,77.483 92.218 C 77.594 92.427,77.845 92.609,78.039 92.624 C 78.233 92.638,78.570 92.860,78.787 93.117 C 79.462 93.914,80.499 95.000,80.585 95.000 C 80.736 95.000,81.333 95.665,81.333 95.833 C 81.333 95.925,81.521 96.000,81.750 96.000 C 82.144 96.000,82.167 95.950,82.167 95.089 C 82.167 94.347,82.120 94.195,81.917 94.273 C 81.711 94.352,81.667 94.184,81.667 93.323 C 81.667 92.636,81.582 92.183,81.422 92.006 C 81.253 91.819,81.164 91.273,81.136 90.243 C 81.113 89.422,81.020 88.698,80.929 88.636 C 80.693 88.472,80.746 80.687,80.985 80.449 C 81.087 80.346,81.167 79.661,81.167 78.883 C 81.167 77.678,81.204 77.500,81.458 77.497 C 81.656 77.496,81.686 77.454,81.550 77.368 C 81.419 77.284,81.404 77.158,81.506 76.996 C 81.592 76.861,81.663 76.431,81.664 76.042 C 81.666 75.565,81.735 75.347,81.875 75.375 C 82.002 75.400,82.091 75.220,82.103 74.917 C 82.145 73.805,82.175 73.668,82.362 73.708 C 82.485 73.735,82.561 73.489,82.570 73.042 C 82.578 72.593,82.660 72.333,82.792 72.333 C 82.906 72.333,82.991 72.277,82.980 72.208 C 82.893 71.653,83.033 71.000,83.240 71.000 C 83.404 71.000,83.497 70.774,83.532 70.292 C 83.565 69.834,83.657 69.598,83.792 69.625 C 83.920 69.651,84.000 69.482,84.000 69.187 C 84.000 68.923,84.113 68.614,84.250 68.500 C 84.387 68.386,84.500 68.154,84.500 67.985 C 84.500 67.787,84.585 67.710,84.737 67.768 C 84.919 67.838,84.964 67.724,84.928 67.277 C 84.894 66.845,84.940 66.718,85.108 66.782 C 85.252 66.838,85.333 66.747,85.333 66.531 C 85.333 66.044,85.511 65.654,85.684 65.761 C 85.766 65.812,85.833 65.661,85.833 65.427 C 85.833 65.146,85.925 65.000,86.101 65.000 C 86.271 65.000,86.334 64.908,86.273 64.750 C 86.214 64.595,86.274 64.500,86.432 64.500 C 86.572 64.500,86.640 64.425,86.583 64.333 C 86.527 64.242,86.557 64.167,86.652 64.167 C 86.746 64.167,86.780 64.054,86.727 63.917 C 86.668 63.763,86.727 63.667,86.881 63.667 C 87.018 63.667,87.178 63.476,87.237 63.243 C 87.302 62.983,87.417 62.865,87.533 62.937 C 87.659 63.015,87.687 62.960,87.615 62.773 C 87.547 62.596,87.630 62.385,87.837 62.208 C 88.018 62.053,88.167 61.793,88.167 61.630 C 88.167 61.467,88.237 61.333,88.322 61.333 C 88.408 61.333,88.524 61.187,88.581 61.009 C 88.637 60.830,88.782 60.721,88.903 60.768 C 89.067 60.831,89.107 60.692,89.059 60.218 C 89.018 59.808,89.048 59.663,89.143 59.809 C 89.253 59.977,89.323 59.985,89.413 59.840 C 89.479 59.732,89.492 59.603,89.442 59.553 C 89.298 59.409,90.183 57.824,90.350 57.927 C 90.433 57.978,90.500 57.940,90.500 57.843 C 90.500 57.746,90.413 57.667,90.307 57.667 C 90.201 57.667,90.322 57.489,90.575 57.271 C 90.857 57.029,90.967 56.832,90.858 56.765 C 90.671 56.650,90.930 55.855,91.221 55.647 C 91.301 55.590,91.377 55.346,91.391 55.105 C 91.407 54.839,91.515 54.666,91.667 54.664 C 91.889 54.662,91.889 54.644,91.667 54.500 C 91.500 54.392,91.486 54.338,91.625 54.336 C 91.740 54.334,91.833 54.155,91.833 53.937 C 91.833 53.719,91.941 53.452,92.072 53.343 C 92.203 53.234,92.304 52.918,92.296 52.640 C 92.288 52.362,92.387 52.068,92.516 51.987 C 92.645 51.905,92.679 51.837,92.592 51.836 C 92.505 51.834,92.523 51.743,92.633 51.633 C 92.743 51.523,92.833 51.267,92.833 51.064 C 92.833 50.521,93.010 50.153,93.210 50.277 C 93.327 50.349,93.349 50.205,93.278 49.847 C 93.209 49.504,93.260 49.136,93.418 48.830 C 93.555 48.566,93.668 47.990,93.669 47.550 C 93.672 46.622,93.817 45.970,93.996 46.081 C 94.065 46.124,94.135 45.586,94.151 44.885 C 94.182 43.545,94.285 43.152,94.510 43.517 C 94.585 43.637,94.649 41.135,94.654 37.957 C 94.661 32.913,94.630 32.191,94.414 32.274 C 94.207 32.353,94.167 32.138,94.167 30.966 C 94.167 29.991,94.092 29.465,93.922 29.240 C 93.787 29.062,93.675 28.747,93.672 28.539 C 93.669 28.332,93.596 28.032,93.510 27.873 C 93.424 27.714,93.310 27.377,93.257 27.125 C 93.201 26.858,93.050 26.667,92.896 26.667 C 92.729 26.667,92.666 26.574,92.727 26.417 C 92.780 26.279,92.731 26.166,92.620 26.164 C 92.491 26.163,92.509 26.102,92.667 26.000 C 92.880 25.862,92.874 25.838,92.625 25.836 C 92.465 25.834,92.333 25.721,92.333 25.583 C 92.333 25.446,92.256 25.333,92.161 25.333 C 91.988 25.333,90.861 24.279,90.789 24.048 C 90.767 23.980,90.620 23.905,90.461 23.880 C 90.303 23.856,89.977 23.667,89.739 23.460 C 89.303 23.081,89.230 23.055,88.542 23.019 C 88.304 23.007,88.166 22.893,88.164 22.708 C 88.162 22.459,88.138 22.453,88.000 22.667 C 87.911 22.804,87.837 22.832,87.836 22.729 C 87.834 22.604,87.269 22.531,86.152 22.512 C 85.130 22.495,84.508 22.545,84.567 22.641 C 84.685 22.831,84.290 23.000,83.727 23.000 C 83.499 23.000,83.356 23.068,83.408 23.152 C 83.459 23.235,83.196 23.355,82.823 23.418 C 82.450 23.482,82.181 23.569,82.225 23.614 C 82.349 23.738,81.787 24.333,81.546 24.333 C 81.429 24.333,81.333 24.446,81.333 24.583 C 81.333 24.721,81.221 24.833,81.083 24.833 C 80.946 24.833,80.833 24.950,80.833 25.093 C 80.833 25.236,80.758 25.307,80.667 25.250 C 80.575 25.193,80.494 25.208,80.488 25.282 C 80.437 25.829,80.289 26.273,80.079 26.505 C 79.943 26.655,79.882 26.827,79.943 26.888 C 80.004 26.948,79.935 27.130,79.790 27.291 C 79.569 27.537,79.410 28.323,79.343 29.500 C 79.333 29.672,79.290 29.690,79.206 29.558 C 79.138 29.452,79.060 30.208,79.031 31.237 C 78.989 32.752,79.028 33.149,79.232 33.319 C 79.627 33.646,79.628 42.249,79.233 42.400 C 79.035 42.476,79.010 42.561,79.138 42.716 C 79.250 42.850,79.257 43.018,79.160 43.172 C 79.075 43.307,79.004 43.775,79.003 44.214 C 79.001 44.766,78.923 45.040,78.750 45.106 C 78.580 45.172,78.500 45.437,78.500 45.934 C 78.500 46.398,78.430 46.651,78.309 46.625 C 78.192 46.599,78.107 46.855,78.091 47.284 C 78.077 47.670,77.947 48.120,77.803 48.284 C 77.659 48.449,77.569 48.752,77.603 48.958 C 77.637 49.165,77.597 49.333,77.515 49.333 C 77.433 49.333,77.286 49.564,77.187 49.846 C 77.074 50.171,76.937 50.314,76.813 50.238 C 76.673 50.151,76.650 50.245,76.732 50.572 C 76.825 50.943,76.784 51.044,76.509 51.116 C 76.323 51.165,76.209 51.268,76.257 51.345 C 76.405 51.584,76.142 52.333,75.910 52.333 C 75.763 52.333,75.715 52.478,75.767 52.763 C 75.816 53.036,75.781 53.154,75.670 53.086 C 75.570 53.023,75.453 53.193,75.394 53.489 C 75.338 53.770,75.189 54.000,75.063 54.000 C 74.936 54.000,74.833 54.150,74.833 54.333 C 74.833 54.517,74.763 54.667,74.678 54.667 C 74.592 54.667,74.475 54.817,74.417 55.000 C 74.358 55.183,74.203 55.333,74.072 55.333 C 73.941 55.333,73.833 55.437,73.833 55.563 C 73.833 55.689,73.725 55.882,73.593 55.992 C 73.461 56.101,73.394 56.298,73.444 56.429 C 73.500 56.574,73.431 56.667,73.268 56.667 C 73.109 56.667,73.000 56.806,73.000 57.010 C 73.000 57.199,72.936 57.313,72.858 57.265 C 72.780 57.217,72.498 57.439,72.233 57.758 C 71.253 58.938,70.205 60.000,70.022 60.000 C 69.918 60.000,69.833 60.075,69.833 60.167 C 69.833 60.509,69.768 60.589,69.306 60.812 C 69.046 60.939,68.833 61.105,68.833 61.182 C 68.833 61.374,67.881 62.333,67.690 62.333 C 67.605 62.333,67.491 62.449,67.437 62.591 C 67.382 62.733,67.241 62.827,67.123 62.800 C 66.861 62.739,65.969 63.414,66.117 63.561 C 66.222 63.667,65.876 63.718,65.250 63.690 C 65.063 63.682,65.011 63.717,65.132 63.770 C 65.463 63.917,64.528 64.713,64.144 64.612 C 63.950 64.562,63.833 64.619,63.833 64.766 C 63.833 64.895,63.727 65.000,63.597 65.000 C 63.467 65.000,63.323 65.094,63.277 65.208 C 63.210 65.375,63.190 65.375,63.180 65.208 C 63.173 65.094,63.084 65.000,62.982 65.000 C 62.881 65.000,62.839 65.109,62.890 65.241 C 62.975 65.463,62.644 65.681,62.269 65.650 C 62.187 65.644,62.071 65.719,62.009 65.818 C 61.948 65.917,61.698 66.015,61.453 66.035 C 61.208 66.055,60.977 66.152,60.940 66.249 C 60.903 66.346,60.623 66.445,60.318 66.468 C 60.013 66.492,59.723 66.576,59.673 66.655 C 59.624 66.735,59.433 66.826,59.250 66.858 C 59.067 66.890,58.842 67.008,58.750 67.120 C 58.658 67.231,58.286 67.354,57.923 67.392 C 57.560 67.430,57.235 67.545,57.201 67.648 C 57.166 67.753,56.753 67.833,56.241 67.833 C 55.512 67.833,55.362 67.880,55.440 68.083 C 55.529 68.317,54.434 68.453,53.317 68.346 C 53.171 68.332,52.969 68.420,52.868 68.541 C 52.655 68.798,44.875 68.818,44.689 68.563 C 44.631 68.482,44.452 68.410,44.292 68.403 C 44.131 68.395,43.625 68.376,43.167 68.361 C 42.564 68.341,42.333 68.267,42.333 68.093 C 42.333 67.912,42.122 67.857,41.486 67.872 C 40.959 67.884,40.589 67.810,40.507 67.678 C 40.396 67.498,40.102 67.427,39.125 67.344 C 39.056 67.338,38.999 67.202,38.997 67.042 C 38.996 66.827,38.959 66.806,38.859 66.964 C 38.751 67.134,38.558 67.108,37.931 66.839 C 37.495 66.653,36.964 66.500,36.750 66.500 C 36.536 66.500,36.336 66.424,36.305 66.332 C 36.274 66.239,36.067 66.128,35.845 66.086 C 35.623 66.043,35.391 65.926,35.329 65.826 C 35.231 65.668,34.920 65.557,34.448 65.513 C 34.374 65.506,34.357 65.430,34.409 65.345 C 34.525 65.157,33.904 64.937,33.668 65.082 C 33.576 65.140,33.500 65.078,33.500 64.945 C 33.500 64.812,33.309 64.655,33.077 64.597 C 32.843 64.538,32.701 64.413,32.760 64.317 C 32.819 64.222,32.766 64.158,32.642 64.175 C 32.141 64.244,31.967 64.160,32.067 63.898 C 32.135 63.723,32.097 63.657,31.960 63.710 C 31.653 63.827,30.961 63.531,31.082 63.335 C 31.140 63.242,31.069 63.167,30.927 63.167 C 30.784 63.167,30.667 63.054,30.667 62.917 C 30.667 62.779,30.554 62.667,30.417 62.667 C 30.279 62.667,30.166 62.573,30.164 62.458 C 30.162 62.319,30.108 62.333,30.000 62.500 C 29.892 62.667,29.838 62.681,29.836 62.542 C 29.834 62.427,29.761 62.333,29.672 62.333 C 29.458 62.333,28.419 61.310,28.409 61.090 C 28.405 60.995,28.311 60.935,28.201 60.958 C 28.090 60.981,27.999 60.831,27.997 60.625 C 27.996 60.347,27.957 60.309,27.849 60.480 C 27.769 60.606,27.619 60.657,27.516 60.593 C 27.413 60.529,27.374 60.402,27.431 60.311 C 27.487 60.219,27.376 60.103,27.183 60.053 C 26.991 60.002,26.833 59.853,26.833 59.721 C 26.833 59.589,26.759 59.526,26.669 59.582 C 26.577 59.639,26.545 59.577,26.597 59.442 C 26.648 59.309,26.609 59.151,26.511 59.090 C 26.413 59.030,26.332 59.079,26.331 59.198 C 26.329 59.361,26.289 59.355,26.175 59.175 C 26.091 59.042,26.054 58.881,26.092 58.819 C 26.131 58.756,26.006 58.664,25.815 58.613 C 25.593 58.556,25.512 58.448,25.592 58.319 C 25.668 58.197,25.649 58.158,25.545 58.222 C 25.329 58.356,24.957 57.936,25.126 57.750 C 25.194 57.675,25.115 57.662,24.950 57.722 C 24.779 57.783,24.691 57.762,24.746 57.673 C 24.799 57.587,24.586 57.283,24.273 56.998 C 23.875 56.636,23.723 56.370,23.770 56.115 C 23.807 55.914,23.792 55.844,23.738 55.959 C 23.597 56.255,23.333 56.046,23.333 55.639 C 23.333 55.404,23.255 55.328,23.083 55.394 C 22.915 55.458,22.833 55.386,22.833 55.171 C 22.833 54.996,22.757 54.806,22.664 54.748 C 22.571 54.691,22.531 54.585,22.575 54.514 C 22.619 54.442,22.479 54.289,22.264 54.174 C 22.024 54.045,21.902 53.857,21.947 53.684 C 21.987 53.530,21.874 53.271,21.695 53.109 C 21.499 52.932,21.403 52.685,21.454 52.491 C 21.511 52.273,21.454 52.167,21.281 52.167 C 20.983 52.167,20.753 51.597,20.933 51.307 C 21.015 51.174,20.965 51.145,20.777 51.216 C 20.528 51.312,20.402 51.057,20.542 50.738 C 20.565 50.686,20.466 50.578,20.323 50.498 C 20.161 50.407,20.076 50.160,20.098 49.843 C 20.122 49.500,20.057 49.333,19.900 49.333 C 19.684 49.333,19.614 49.016,19.625 48.091 C 19.629 47.772,19.624 47.772,19.398 48.081 C 19.189 48.367,19.167 48.321,19.167 47.605 C 19.167 47.170,19.100 46.855,19.019 46.905 C 18.833 47.020,18.672 46.436,18.669 45.639 C 18.668 45.303,18.581 44.999,18.477 44.965 C 18.373 44.930,18.288 44.568,18.288 44.161 C 18.288 43.712,18.194 43.352,18.050 43.246 C 17.856 43.104,17.813 42.383,17.817 39.328 C 17.825 32.788,17.827 32.732,18.000 33.000 C 18.185 33.287,18.185 33.288,18.252 31.809 C 18.280 31.201,18.384 30.549,18.485 30.362 C 18.585 30.175,18.669 29.811,18.672 29.553 C 18.675 29.295,18.787 28.938,18.922 28.760 C 19.057 28.582,19.167 28.190,19.167 27.890 C 19.167 27.460,19.223 27.365,19.431 27.445 C 19.620 27.518,19.686 27.457,19.662 27.232 C 19.604 26.690,19.661 26.477,19.833 26.583 C 19.925 26.640,20.010 26.551,20.021 26.385 C 20.080 25.555,20.135 25.288,20.270 25.190 C 20.351 25.131,20.441 24.933,20.470 24.750 C 20.499 24.567,20.623 24.339,20.745 24.243 C 20.868 24.148,20.995 23.886,21.029 23.660 C 21.063 23.435,21.183 23.269,21.296 23.292 C 21.421 23.317,21.500 23.140,21.500 22.833 C 21.500 22.500,21.583 22.333,21.750 22.333 C 21.887 22.333,22.000 22.221,22.000 22.083 C 22.000 21.946,22.093 21.852,22.207 21.875 C 22.340 21.902,22.395 21.755,22.361 21.458 C 22.322 21.114,22.382 21.000,22.599 21.000 C 22.759 21.000,22.839 20.950,22.779 20.890 C 22.718 20.829,22.823 20.672,23.012 20.539 C 23.201 20.407,23.318 20.200,23.271 20.078 C 23.176 19.831,23.553 19.442,23.724 19.613 C 23.784 19.673,23.833 19.555,23.833 19.351 C 23.833 19.147,23.903 19.023,23.987 19.075 C 24.072 19.128,24.310 18.832,24.517 18.419 C 24.723 18.005,24.954 17.667,25.030 17.667 C 25.105 17.667,25.167 17.586,25.167 17.488 C 25.167 17.282,25.456 16.995,25.924 16.736 C 26.103 16.637,26.324 16.393,26.415 16.195 C 26.505 15.996,26.640 15.833,26.714 15.833 C 26.831 15.833,27.227 15.436,27.821 14.726 C 27.908 14.621,27.937 14.492,27.884 14.439 C 27.831 14.386,28.020 14.126,28.305 13.860 C 28.589 13.595,28.852 13.407,28.889 13.444 C 28.926 13.481,28.920 13.321,28.875 13.089 C 28.817 12.784,28.866 12.667,29.053 12.667 C 29.211 12.667,29.332 12.489,29.364 12.208 C 29.393 11.956,29.506 11.767,29.615 11.788 C 29.924 11.848,29.883 7.991,29.573 7.758 C 29.445 7.662,29.323 7.340,29.301 7.042 C 29.280 6.744,29.203 6.500,29.131 6.500 C 29.059 6.500,29.000 6.350,29.000 6.167 C 29.000 5.958,28.889 5.833,28.703 5.833 C 28.436 5.833,27.811 5.036,27.825 4.714 C 27.828 4.644,27.737 4.579,27.624 4.569 C 27.085 4.522,27.000 4.488,27.000 4.318 C 27.000 4.064,26.305 3.512,25.976 3.506 C 25.826 3.502,25.660 3.391,25.609 3.257 C 25.553 3.111,25.330 3.028,25.050 3.049 C 24.752 3.071,24.598 3.008,24.625 2.875 C 24.648 2.760,24.573 2.661,24.458 2.655 C 23.136 2.580,21.444 2.562,20.876 2.617 M246.601 11.022 C 246.374 11.082,246.139 11.084,246.080 11.024 C 246.021 10.965,245.997 11.026,246.028 11.159 C 246.068 11.334,245.930 11.402,245.542 11.401 C 245.208 11.401,245.000 11.484,245.000 11.617 C 245.000 11.736,244.865 11.833,244.699 11.833 C 244.333 11.833,243.294 12.572,243.447 12.724 C 243.507 12.784,243.434 12.833,243.286 12.833 C 243.138 12.833,242.940 12.965,242.847 13.125 C 242.753 13.285,242.675 13.346,242.672 13.259 C 242.669 13.173,242.474 13.360,242.238 13.676 C 242.003 13.992,241.740 14.231,241.655 14.208 C 241.570 14.185,241.500 14.250,241.500 14.351 C 241.500 14.452,241.313 14.683,241.083 14.863 C 240.854 15.043,240.667 15.335,240.667 15.510 C 240.667 15.686,240.538 15.980,240.381 16.164 C 240.223 16.347,240.086 16.667,240.076 16.874 C 240.066 17.081,239.968 17.465,239.859 17.728 C 239.603 18.344,239.628 21.600,239.892 21.880 C 239.997 21.992,240.110 22.269,240.142 22.496 C 240.174 22.723,240.297 23.046,240.415 23.215 C 240.533 23.384,240.592 23.667,240.545 23.844 C 240.488 24.065,240.546 24.167,240.731 24.167 C 240.886 24.167,241.000 24.303,241.000 24.488 C 241.000 24.665,241.112 24.922,241.250 25.060 C 241.387 25.197,241.500 25.390,241.500 25.488 C 241.500 25.586,241.612 25.667,241.750 25.667 C 241.887 25.667,242.000 25.737,242.000 25.822 C 242.000 25.908,242.151 26.025,242.336 26.084 C 242.520 26.143,242.628 26.260,242.576 26.345 C 242.523 26.430,242.602 26.500,242.750 26.500 C 242.898 26.500,242.973 26.576,242.915 26.669 C 242.858 26.762,243.038 26.883,243.322 26.939 C 243.603 26.996,243.834 27.126,243.834 27.229 C 243.835 27.413,245.064 28.000,245.448 28.000 C 245.555 28.000,245.761 28.118,245.905 28.262 C 246.049 28.406,246.167 28.445,246.167 28.349 C 246.167 28.237,246.301 28.226,246.543 28.318 C 247.117 28.536,251.842 28.423,251.987 28.187 C 252.054 28.080,252.387 27.982,252.728 27.969 C 253.171 27.952,253.324 27.882,253.263 27.723 C 253.208 27.581,253.303 27.500,253.523 27.500 C 253.713 27.500,254.153 27.275,254.500 27.000 C 254.847 26.725,255.252 26.500,255.399 26.500 C 255.546 26.500,255.667 26.383,255.667 26.240 C 255.667 26.097,255.742 26.027,255.833 26.083 C 255.925 26.140,256.000 26.038,256.000 25.857 C 256.000 25.677,256.256 25.265,256.568 24.944 C 256.881 24.622,257.093 24.315,257.040 24.262 C 256.987 24.209,257.097 23.997,257.285 23.791 C 257.472 23.585,257.604 23.285,257.578 23.125 C 257.551 22.965,257.623 22.833,257.737 22.833 C 257.975 22.833,257.974 22.836,258.050 21.167 C 258.090 20.290,258.168 19.930,258.311 19.961 C 258.547 20.012,258.499 19.476,258.253 19.300 C 258.163 19.235,258.075 18.860,258.058 18.466 C 258.041 18.072,258.021 17.624,258.013 17.470 C 258.006 17.316,257.903 17.091,257.785 16.970 C 257.667 16.849,257.587 16.550,257.608 16.305 C 257.629 16.045,257.545 15.822,257.406 15.769 C 257.274 15.718,257.167 15.570,257.167 15.440 C 257.167 15.309,257.054 15.159,256.917 15.106 C 256.779 15.054,256.667 14.891,256.667 14.745 C 256.667 14.585,256.589 14.528,256.472 14.601 C 256.339 14.683,256.312 14.629,256.386 14.435 C 256.447 14.278,256.428 14.192,256.343 14.244 C 256.259 14.296,256.143 14.187,256.084 14.002 C 256.025 13.818,255.851 13.666,255.697 13.664 C 255.478 13.662,255.466 13.630,255.641 13.519 C 255.806 13.415,255.750 13.348,255.426 13.267 C 255.184 13.207,255.028 13.089,255.079 13.007 C 255.130 12.925,255.019 12.809,254.833 12.750 C 254.647 12.691,254.538 12.573,254.591 12.488 C 254.643 12.403,254.564 12.333,254.415 12.333 C 254.265 12.333,254.030 12.221,253.893 12.083 C 253.755 11.946,253.498 11.833,253.321 11.833 C 253.145 11.833,253.000 11.719,253.000 11.580 C 253.000 11.396,252.891 11.354,252.602 11.427 C 252.382 11.482,252.153 11.446,252.092 11.347 C 252.030 11.248,251.830 11.167,251.647 11.167 C 251.464 11.167,251.352 11.104,251.400 11.027 C 251.501 10.864,247.210 10.859,246.601 11.022 M341.639 13.949 C 341.540 14.069,341.139 14.167,340.747 14.167 C 340.268 14.167,340.004 14.248,339.940 14.417 C 339.877 14.580,339.618 14.667,339.192 14.667 C 338.828 14.667,338.453 14.773,338.342 14.907 C 338.232 15.039,338.038 15.107,337.910 15.058 C 337.783 15.009,337.470 15.111,337.214 15.285 C 336.959 15.459,336.581 15.588,336.375 15.573 C 336.156 15.557,336.000 15.640,336.000 15.773 C 336.000 15.905,335.823 16.000,335.578 16.000 C 335.346 16.000,335.113 16.112,335.060 16.250 C 335.008 16.387,334.869 16.500,334.753 16.500 C 334.636 16.500,334.447 16.612,334.333 16.750 C 334.219 16.887,334.016 17.000,333.881 17.000 C 333.565 17.000,332.812 17.589,332.950 17.728 C 333.008 17.786,332.856 17.833,332.611 17.833 C 332.367 17.833,332.166 17.927,332.164 18.042 C 332.162 18.181,332.108 18.167,332.000 18.000 C 331.894 17.836,331.838 17.821,331.836 17.956 C 331.833 18.196,331.320 18.833,331.130 18.833 C 331.058 18.833,330.847 18.986,330.661 19.173 C 330.474 19.359,330.257 19.473,330.180 19.425 C 330.102 19.376,329.997 19.494,329.947 19.685 C 329.897 19.877,329.778 19.985,329.683 19.927 C 329.587 19.868,329.462 20.010,329.403 20.243 C 329.345 20.476,329.204 20.667,329.090 20.667 C 328.818 20.667,327.991 21.435,328.121 21.566 C 328.177 21.621,328.041 21.668,327.819 21.669 C 327.562 21.671,327.491 21.719,327.621 21.802 C 327.772 21.897,327.739 21.995,327.496 22.169 C 327.315 22.300,327.166 22.522,327.166 22.662 C 327.166 22.802,326.946 23.064,326.678 23.243 C 326.410 23.423,326.220 23.618,326.256 23.676 C 326.292 23.735,326.174 23.941,325.994 24.134 C 325.814 24.328,325.667 24.564,325.667 24.660 C 325.667 24.755,325.592 24.833,325.500 24.833 C 325.408 24.833,325.333 24.954,325.333 25.101 C 325.333 25.248,325.240 25.333,325.125 25.289 C 324.998 25.240,324.907 25.362,324.893 25.598 C 324.880 25.813,324.744 26.113,324.592 26.265 C 324.439 26.418,324.353 26.644,324.400 26.767 C 324.447 26.890,324.396 27.049,324.285 27.121 C 324.021 27.290,323.442 28.495,323.428 28.903 C 323.422 29.078,323.323 29.253,323.208 29.292 C 323.088 29.332,323.000 29.642,323.000 30.024 C 323.000 30.388,322.933 30.645,322.851 30.594 C 322.652 30.471,322.500 30.899,322.500 31.579 C 322.500 31.916,322.403 32.168,322.250 32.227 C 322.061 32.300,322.000 32.607,322.000 33.495 C 322.000 34.139,321.944 34.667,321.875 34.667 C 321.627 34.667,321.612 35.904,321.598 57.917 L 321.583 80.250 330.417 80.297 C 335.275 80.323,339.419 80.303,339.625 80.253 L 340.000 80.160 340.000 71.189 C 340.000 62.608,340.014 62.206,340.315 61.934 C 340.596 61.679,341.038 61.654,344.474 61.699 L 348.318 61.750 348.329 52.272 C 348.338 45.382,348.289 42.730,348.150 42.563 C 347.998 42.380,347.160 42.333,343.980 42.333 L 340.000 42.333 340.000 41.351 C 340.000 40.620,340.066 40.344,340.257 40.270 C 340.456 40.194,340.475 40.098,340.341 39.847 C 340.130 39.453,340.118 39.283,340.309 39.402 C 340.388 39.450,340.450 39.323,340.449 39.120 C 340.438 37.957,340.507 37.667,340.792 37.664 C 341.031 37.662,341.041 37.634,340.844 37.510 C 340.646 37.385,340.642 37.314,340.823 37.096 C 340.943 36.952,340.975 36.831,340.895 36.828 C 340.815 36.825,340.872 36.729,341.022 36.616 C 341.172 36.502,341.326 36.260,341.365 36.079 C 341.405 35.898,341.526 35.769,341.635 35.792 C 341.744 35.815,341.833 35.736,341.833 35.618 C 341.833 35.291,343.482 33.802,343.697 33.935 C 343.800 33.999,343.975 33.926,344.087 33.773 C 344.223 33.587,344.560 33.486,345.104 33.468 C 345.551 33.454,346.111 33.347,346.349 33.230 C 346.587 33.113,347.131 33.000,347.558 32.978 C 348.195 32.945,348.735 32.667,348.161 32.667 C 348.042 32.667,348.042 32.567,348.161 32.344 C 348.541 31.634,348.366 13.690,347.981 13.928 C 347.900 13.979,347.833 13.936,347.833 13.834 C 347.833 13.549,341.879 13.660,341.639 13.949 M46.408 18.989 C 46.321 19.075,45.782 19.178,45.209 19.218 C 44.637 19.258,44.063 19.379,43.934 19.485 C 43.806 19.592,43.337 19.705,42.892 19.736 C 42.447 19.767,42.099 19.869,42.119 19.962 C 42.139 20.055,41.893 20.181,41.573 20.241 C 41.253 20.301,41.035 20.421,41.089 20.508 C 41.143 20.597,40.927 20.667,40.598 20.667 C 40.158 20.667,40.033 20.726,40.102 20.904 C 40.172 21.088,40.076 21.123,39.680 21.061 C 39.307 21.002,39.167 21.046,39.167 21.220 C 39.167 21.351,39.040 21.562,38.885 21.688 C 38.730 21.814,38.655 21.830,38.718 21.724 C 38.798 21.592,38.717 21.562,38.463 21.628 C 38.257 21.682,38.186 21.756,38.304 21.796 C 38.421 21.835,38.196 22.070,37.799 22.323 C 37.321 22.628,37.043 22.719,36.961 22.598 C 36.876 22.473,36.838 22.479,36.836 22.619 C 36.833 22.869,35.909 23.833,35.672 23.833 C 35.578 23.833,35.500 23.928,35.500 24.043 C 35.500 24.159,35.239 24.477,34.920 24.752 C 34.601 25.026,34.339 25.342,34.337 25.455 C 34.335 25.568,34.142 25.708,33.909 25.767 C 33.675 25.825,33.526 25.915,33.576 25.965 C 33.626 26.015,33.560 26.175,33.429 26.320 C 33.197 26.576,33.167 26.654,33.167 27.000 C 33.167 27.092,33.046 27.167,32.899 27.167 C 32.729 27.167,32.666 27.258,32.727 27.417 C 32.810 27.634,32.662 27.734,32.316 27.695 C 32.261 27.688,32.251 27.867,32.294 28.092 C 32.359 28.430,32.304 28.502,31.978 28.513 C 31.761 28.520,31.676 28.564,31.790 28.610 C 31.935 28.668,31.949 28.784,31.838 28.992 C 31.750 29.155,31.726 29.337,31.784 29.395 C 31.842 29.453,31.812 29.500,31.717 29.500 C 31.544 29.500,30.977 30.798,30.880 31.417 C 30.851 31.600,30.707 31.840,30.560 31.950 C 30.381 32.084,30.318 32.318,30.368 32.658 C 30.409 32.938,30.376 33.167,30.295 33.167 C 30.213 33.167,30.189 33.235,30.241 33.319 C 30.293 33.403,30.243 33.502,30.130 33.540 C 29.990 33.587,29.918 34.096,29.902 35.155 C 29.890 36.006,29.810 36.750,29.726 36.809 C 29.546 36.935,29.530 37.585,29.702 37.758 C 29.768 37.824,29.750 38.011,29.662 38.175 C 29.563 38.360,29.562 38.494,29.659 38.528 C 29.746 38.559,29.846 39.275,29.883 40.119 C 29.926 41.099,30.035 41.760,30.183 41.943 C 30.386 42.193,30.384 42.211,30.167 42.083 C 29.948 41.954,29.946 41.973,30.156 42.231 C 30.287 42.393,30.403 42.846,30.412 43.239 C 30.423 43.677,30.541 44.065,30.720 44.244 C 30.897 44.421,30.972 44.660,30.910 44.855 C 30.842 45.070,30.881 45.160,31.029 45.129 C 31.161 45.102,31.271 45.268,31.303 45.542 C 31.334 45.813,31.457 46.000,31.604 46.000 C 31.741 46.000,31.806 46.076,31.749 46.168 C 31.603 46.405,31.825 47.025,32.014 46.908 C 32.100 46.855,32.217 47.041,32.273 47.322 C 32.329 47.603,32.474 47.833,32.595 47.833 C 32.726 47.833,32.788 47.970,32.748 48.175 C 32.711 48.369,32.787 48.557,32.925 48.609 C 33.058 48.661,33.167 48.769,33.167 48.851 C 33.167 49.054,33.793 49.667,34.000 49.667 C 34.092 49.667,34.167 49.779,34.167 49.917 C 34.167 50.054,34.236 50.167,34.320 50.167 C 34.404 50.167,34.522 50.387,34.581 50.657 C 34.662 51.025,34.759 51.123,34.969 51.047 C 35.124 50.992,35.194 51.008,35.126 51.083 C 34.944 51.284,35.319 51.662,35.596 51.556 C 35.726 51.505,35.833 51.542,35.833 51.638 C 35.833 51.733,35.980 51.857,36.158 51.914 C 36.373 51.982,36.448 52.108,36.380 52.286 C 36.309 52.472,36.340 52.515,36.483 52.427 C 36.616 52.345,36.722 52.424,36.781 52.650 C 36.831 52.842,36.976 53.000,37.103 53.000 C 37.230 53.000,37.333 53.108,37.333 53.240 C 37.333 53.399,37.459 53.457,37.703 53.410 C 37.952 53.362,38.210 53.487,38.496 53.794 C 38.729 54.045,39.069 54.276,39.251 54.308 C 39.434 54.340,39.622 54.428,39.668 54.503 C 39.715 54.579,39.956 54.691,40.204 54.753 C 40.453 54.816,40.639 54.950,40.619 55.051 C 40.600 55.152,40.752 55.248,40.958 55.263 C 41.165 55.279,41.446 55.301,41.583 55.313 C 41.721 55.324,41.815 55.421,41.792 55.529 C 41.766 55.650,41.985 55.726,42.370 55.729 C 42.721 55.732,43.026 55.828,43.073 55.950 C 43.127 56.091,43.475 56.167,44.073 56.167 C 44.876 56.167,44.976 56.203,44.880 56.458 C 44.787 56.708,44.809 56.719,45.037 56.534 C 45.220 56.385,45.338 56.373,45.414 56.495 C 45.598 56.794,52.328 56.708,52.444 56.406 C 52.505 56.248,52.786 56.167,53.278 56.167 C 53.686 56.167,53.979 56.100,53.928 56.019 C 53.814 55.834,54.230 55.731,55.044 55.742 C 55.492 55.748,55.696 55.669,55.760 55.467 C 55.810 55.311,55.949 55.222,56.070 55.268 C 56.191 55.315,56.407 55.236,56.550 55.093 C 56.693 54.950,56.965 54.833,57.155 54.833 C 57.345 54.833,57.500 54.729,57.500 54.601 C 57.500 54.474,57.702 54.319,57.949 54.257 C 58.195 54.195,58.562 53.952,58.764 53.718 C 58.965 53.483,59.213 53.343,59.315 53.405 C 59.417 53.468,59.501 53.421,59.503 53.302 C 59.504 53.143,59.549 53.152,59.667 53.333 C 59.805 53.547,59.829 53.541,59.831 53.292 C 59.832 53.131,59.946 53.000,60.083 53.000 C 60.221 53.000,60.333 52.932,60.333 52.850 C 60.333 52.677,63.245 49.667,63.412 49.667 C 63.608 49.667,63.988 49.210,63.881 49.103 C 63.824 49.046,63.856 49.000,63.952 49.000 C 64.048 49.000,64.225 48.756,64.345 48.458 C 64.465 48.160,64.662 47.857,64.782 47.783 C 64.902 47.710,65.000 47.512,65.000 47.343 C 65.000 47.174,65.112 46.992,65.250 46.940 C 65.387 46.887,65.500 46.663,65.500 46.442 C 65.500 46.221,65.612 45.947,65.750 45.833 C 65.887 45.719,66.000 45.532,66.000 45.417 C 66.000 45.302,66.109 45.117,66.243 45.006 C 66.402 44.874,66.453 44.639,66.390 44.326 C 66.326 44.006,66.383 43.760,66.564 43.579 C 66.712 43.431,66.833 43.090,66.833 42.821 C 66.833 42.520,66.920 42.333,67.061 42.333 C 67.407 42.333,67.457 34.084,67.113 33.690 C 66.908 33.456,66.733 32.850,66.636 32.042 C 66.622 31.927,66.548 31.833,66.472 31.833 C 66.395 31.833,66.343 31.627,66.356 31.375 C 66.394 30.664,66.348 30.472,66.167 30.583 C 66.017 30.676,65.928 30.457,65.980 30.125 C 65.991 30.056,65.906 29.999,65.792 29.997 C 65.641 29.996,65.647 29.955,65.813 29.849 C 65.939 29.769,65.990 29.619,65.927 29.516 C 65.863 29.413,65.740 29.371,65.655 29.424 C 65.570 29.477,65.500 29.290,65.500 29.010 C 65.500 28.668,65.418 28.500,65.250 28.500 C 65.112 28.500,64.998 28.369,64.994 28.208 C 64.988 27.865,64.443 27.167,64.182 27.167 C 64.082 27.167,63.999 26.923,63.997 26.625 C 63.996 26.214,63.956 26.144,63.833 26.333 C 63.674 26.580,63.579 26.389,63.647 25.958 C 63.658 25.890,63.554 25.833,63.417 25.833 C 63.279 25.833,63.166 25.740,63.166 25.625 C 63.166 25.510,62.941 25.267,62.667 25.083 C 62.392 24.900,62.167 24.656,62.167 24.542 C 62.167 24.427,62.050 24.333,61.907 24.333 C 61.764 24.333,61.687 24.269,61.735 24.191 C 61.783 24.113,61.634 23.962,61.402 23.857 C 61.171 23.752,61.029 23.589,61.086 23.495 C 61.144 23.402,61.120 23.346,61.032 23.371 C 60.945 23.396,60.692 23.229,60.469 23.000 C 60.247 22.771,59.957 22.559,59.824 22.529 C 59.465 22.447,59.000 21.982,59.000 21.705 C 59.000 21.533,58.874 21.485,58.570 21.543 C 58.297 21.595,58.108 21.542,58.052 21.396 C 58.004 21.270,57.832 21.167,57.669 21.167 C 57.507 21.167,57.281 21.054,57.167 20.917 C 57.053 20.779,56.781 20.667,56.563 20.667 C 56.322 20.667,56.167 20.569,56.167 20.417 C 56.167 20.263,56.011 20.167,55.764 20.167 C 55.542 20.167,55.336 20.093,55.306 20.003 C 55.253 19.848,54.539 19.703,53.708 19.678 C 53.502 19.672,53.333 19.573,53.333 19.458 C 53.333 19.311,52.955 19.245,52.049 19.233 C 51.246 19.222,50.743 19.144,50.703 19.025 C 50.624 18.788,46.645 18.756,46.408 18.989 M134.413 31.361 C 134.186 31.421,133.999 31.421,133.997 31.361 C 133.996 31.300,133.930 31.352,133.851 31.477 C 133.764 31.615,133.371 31.714,132.855 31.727 C 132.375 31.740,131.971 31.836,131.928 31.947 C 131.887 32.055,131.511 32.195,131.093 32.257 C 130.675 32.320,130.333 32.438,130.333 32.519 C 130.333 32.600,130.176 32.667,129.984 32.667 C 129.792 32.667,129.436 32.768,129.192 32.891 C 128.949 33.015,128.394 33.294,127.958 33.513 C 127.523 33.731,127.167 33.959,127.167 34.019 C 127.167 34.079,126.904 34.253,126.583 34.405 C 126.263 34.558,126.000 34.754,126.000 34.841 C 126.000 34.929,125.885 35.000,125.745 35.000 C 125.604 35.000,125.446 35.112,125.394 35.250 C 125.341 35.387,125.193 35.500,125.066 35.500 C 124.938 35.500,124.833 35.612,124.833 35.750 C 124.833 35.887,124.752 36.000,124.654 36.000 C 124.457 36.000,123.000 37.505,123.000 37.708 C 123.000 37.777,122.888 37.833,122.750 37.833 C 122.612 37.833,122.500 37.950,122.500 38.093 C 122.500 38.236,122.434 38.312,122.352 38.262 C 122.216 38.177,121.941 38.756,121.982 39.042 C 121.992 39.110,121.906 39.148,121.792 39.125 C 121.677 39.102,121.599 39.168,121.618 39.272 C 121.638 39.375,121.431 39.630,121.160 39.838 C 120.861 40.068,120.667 40.370,120.667 40.608 C 120.667 40.858,120.569 41.000,120.397 41.000 C 120.209 41.000,120.154 41.101,120.216 41.336 C 120.264 41.521,120.191 41.785,120.053 41.923 C 119.819 42.157,119.710 42.460,119.679 42.958 C 119.672 43.073,119.582 43.148,119.478 43.125 C 119.375 43.102,119.274 43.267,119.254 43.492 C 119.234 43.716,119.131 43.929,119.025 43.964 C 118.920 43.999,118.833 44.284,118.833 44.597 C 118.833 44.942,118.751 45.167,118.625 45.167 C 118.499 45.167,118.398 45.445,118.368 45.870 C 118.342 46.256,118.233 46.625,118.128 46.691 C 118.022 46.756,117.927 47.021,117.917 47.280 C 117.907 47.538,117.884 48.181,117.866 48.708 C 117.843 49.388,117.768 49.667,117.607 49.667 C 117.418 49.667,117.384 52.186,117.399 64.958 L 117.417 80.250 126.250 80.297 C 131.108 80.323,135.252 80.303,135.458 80.253 L 135.833 80.160 135.833 68.580 C 135.833 60.225,135.885 57.000,136.018 57.000 C 136.119 57.000,136.161 56.892,136.111 56.761 C 136.060 56.629,136.108 56.485,136.218 56.440 C 136.360 56.382,136.345 56.308,136.167 56.182 C 136.029 56.085,135.998 56.004,136.098 56.003 C 136.207 56.001,136.285 55.587,136.295 54.964 C 136.307 54.231,136.388 53.872,136.573 53.737 C 136.716 53.632,136.833 53.403,136.833 53.227 C 136.833 53.051,136.943 52.751,137.077 52.559 C 137.212 52.367,137.274 52.163,137.216 52.105 C 137.158 52.047,137.236 52.000,137.389 52.000 C 137.542 52.000,137.667 51.896,137.667 51.768 C 137.667 51.641,137.854 51.489,138.083 51.432 C 138.313 51.374,138.500 51.264,138.500 51.187 C 138.500 51.109,138.676 51.080,138.890 51.121 C 139.105 51.162,139.390 51.086,139.523 50.953 C 139.832 50.645,140.965 50.501,141.063 50.758 C 141.104 50.863,141.349 50.961,141.610 50.975 C 143.021 51.056,143.577 51.149,143.633 51.315 C 143.667 51.417,143.801 51.500,143.931 51.500 C 144.132 51.500,144.167 50.010,144.167 41.455 L 144.167 31.410 142.958 31.367 C 140.072 31.263,134.792 31.259,134.413 31.361 M168.425 31.299 C 167.581 31.326,166.826 31.435,166.685 31.549 C 166.489 31.707,166.462 31.706,166.561 31.542 C 166.712 31.290,166.584 31.277,166.166 31.500 C 165.995 31.592,165.640 31.691,165.378 31.719 C 165.116 31.748,164.811 31.827,164.701 31.896 C 164.590 31.964,164.499 31.959,164.497 31.885 C 164.496 31.811,164.431 31.851,164.352 31.975 C 164.267 32.110,163.858 32.211,163.326 32.229 C 162.800 32.247,162.414 32.341,162.374 32.463 C 162.336 32.575,162.167 32.667,161.998 32.667 C 161.829 32.667,161.589 32.768,161.466 32.891 C 161.343 33.015,160.960 33.168,160.616 33.233 C 160.217 33.308,160.032 33.418,160.106 33.537 C 160.180 33.656,160.127 33.687,159.960 33.623 C 159.809 33.565,159.574 33.659,159.406 33.845 C 159.246 34.022,159.046 34.167,158.962 34.167 C 158.878 34.167,158.696 34.280,158.558 34.418 C 158.420 34.557,158.245 34.632,158.171 34.586 C 158.096 34.540,157.992 34.614,157.939 34.751 C 157.887 34.888,157.691 35.000,157.505 35.000 C 157.319 35.000,157.167 35.070,157.167 35.155 C 157.167 35.241,156.998 35.364,156.792 35.429 C 156.585 35.493,156.247 35.728,156.040 35.950 C 155.833 36.173,155.522 36.365,155.350 36.378 C 155.167 36.392,155.071 36.492,155.119 36.617 C 155.165 36.736,155.124 36.833,155.028 36.833 C 154.932 36.833,154.517 37.164,154.107 37.569 C 153.696 37.974,153.327 38.271,153.286 38.231 C 153.245 38.190,153.084 38.351,152.928 38.589 C 152.552 39.163,152.040 39.667,151.833 39.667 C 151.742 39.667,151.667 39.779,151.667 39.917 C 151.667 40.054,151.573 40.167,151.458 40.168 C 151.267 40.169,150.833 40.886,150.833 41.200 C 150.833 41.404,150.192 42.000,149.972 42.000 C 149.865 42.000,149.826 42.048,149.884 42.106 C 149.942 42.165,149.842 42.420,149.662 42.674 C 149.481 42.927,149.333 43.221,149.333 43.327 C 149.333 43.433,149.264 43.477,149.179 43.424 C 148.989 43.307,148.771 43.931,148.918 44.169 C 148.977 44.264,148.927 44.321,148.808 44.296 C 148.687 44.270,148.564 44.434,148.530 44.667 C 148.496 44.896,148.363 45.143,148.234 45.217 C 148.105 45.290,148.000 45.536,148.000 45.764 C 148.000 45.991,147.887 46.220,147.750 46.273 C 147.606 46.328,147.500 46.577,147.500 46.861 C 147.500 47.147,147.430 47.310,147.333 47.250 C 147.155 47.140,147.137 47.185,147.098 47.838 C 147.084 48.070,146.937 48.546,146.771 48.896 C 146.605 49.245,146.505 49.670,146.550 49.838 C 146.594 50.007,146.537 50.281,146.423 50.448 C 146.309 50.614,146.210 50.862,146.203 51.000 C 146.196 51.137,146.172 51.681,146.149 52.208 C 146.120 52.871,146.040 53.167,145.887 53.167 C 145.623 53.167,145.621 53.191,145.829 53.739 C 145.941 54.034,145.936 54.167,145.812 54.167 C 145.559 54.167,145.670 58.831,145.931 59.167 C 146.038 59.304,146.137 59.867,146.152 60.417 C 146.189 61.833,146.199 61.905,146.374 62.019 C 146.460 62.076,146.542 62.469,146.557 62.892 C 146.571 63.316,146.672 63.697,146.780 63.738 C 146.888 63.780,147.028 64.156,147.091 64.574 C 147.153 64.991,147.271 65.333,147.352 65.333 C 147.434 65.333,147.500 65.553,147.500 65.821 C 147.500 66.090,147.623 66.433,147.773 66.583 C 147.924 66.733,148.064 67.020,148.085 67.220 C 148.151 67.838,148.161 67.856,148.362 67.732 C 148.493 67.651,148.522 67.703,148.450 67.889 C 148.392 68.042,148.416 68.167,148.505 68.167 C 148.594 68.167,148.667 68.280,148.667 68.418 C 148.667 68.557,148.817 68.798,149.000 68.955 C 149.183 69.112,149.333 69.334,149.333 69.448 C 149.333 69.562,149.558 69.885,149.833 70.167 C 150.108 70.448,150.333 70.826,150.333 71.006 C 150.333 71.186,150.424 71.315,150.534 71.292 C 150.645 71.269,150.738 71.350,150.742 71.472 C 150.747 71.594,150.880 71.789,151.039 71.905 C 151.198 72.021,151.279 72.165,151.220 72.225 C 151.160 72.284,151.219 72.333,151.352 72.333 C 151.613 72.333,152.167 72.901,152.167 73.169 C 152.167 73.259,152.254 73.333,152.361 73.333 C 152.468 73.333,152.510 73.379,152.455 73.434 C 152.399 73.490,152.537 73.704,152.760 73.912 C 152.984 74.119,153.167 74.373,153.167 74.477 C 153.167 74.582,153.314 74.667,153.494 74.667 C 153.827 74.667,155.000 75.710,155.000 76.006 C 155.000 76.094,155.150 76.167,155.333 76.167 C 155.517 76.167,155.667 76.242,155.667 76.333 C 155.667 76.425,155.771 76.500,155.899 76.500 C 156.027 76.500,156.174 76.613,156.227 76.750 C 156.280 76.888,156.433 77.000,156.569 77.000 C 156.704 77.000,156.947 77.225,157.110 77.500 C 157.272 77.775,157.468 78.000,157.546 78.000 C 157.623 78.000,157.637 77.919,157.576 77.821 C 157.515 77.723,157.623 77.741,157.816 77.861 C 158.009 77.982,158.167 78.135,158.167 78.202 C 158.167 78.268,158.265 78.285,158.386 78.239 C 158.506 78.193,158.743 78.308,158.911 78.494 C 159.083 78.684,159.427 78.833,159.692 78.833 C 160.032 78.833,160.167 78.916,160.169 79.125 C 160.171 79.374,160.195 79.380,160.333 79.167 C 160.441 79.000,160.496 78.986,160.497 79.125 C 160.499 79.240,160.679 79.333,160.899 79.333 C 161.118 79.333,161.341 79.446,161.394 79.583 C 161.446 79.721,161.679 79.833,161.911 79.833 C 162.143 79.833,162.333 79.899,162.333 79.978 C 162.333 80.058,162.680 80.162,163.104 80.210 C 163.528 80.258,163.922 80.362,163.979 80.442 C 164.036 80.521,164.533 80.612,165.083 80.643 C 165.694 80.678,166.133 80.788,166.211 80.924 C 166.395 81.245,175.858 81.283,175.793 80.962 C 175.763 80.814,176.048 80.735,176.746 80.699 C 177.294 80.671,177.791 80.569,177.850 80.473 C 177.910 80.376,178.305 80.288,178.729 80.276 C 179.153 80.264,179.500 80.203,179.500 80.139 C 179.500 80.009,180.116 79.775,180.500 79.760 C 180.637 79.754,180.731 79.656,180.708 79.542 C 180.685 79.427,180.817 79.324,181.000 79.313 C 181.183 79.301,181.408 79.273,181.500 79.250 C 181.592 79.227,181.746 79.199,181.843 79.188 C 181.940 79.176,181.973 79.092,181.917 79.000 C 181.859 78.906,181.991 78.833,182.220 78.833 C 182.443 78.833,182.719 78.722,182.832 78.585 C 182.945 78.449,183.105 78.378,183.187 78.429 C 183.269 78.480,183.381 78.402,183.437 78.256 C 183.521 78.038,183.585 78.029,183.801 78.204 C 184.016 78.378,184.040 78.376,183.932 78.197 C 183.843 78.050,183.914 77.948,184.148 77.887 C 184.340 77.836,184.455 77.729,184.405 77.648 C 184.355 77.566,184.469 77.500,184.658 77.500 C 184.848 77.500,185.128 77.354,185.281 77.175 C 185.434 76.997,185.621 76.888,185.696 76.935 C 185.772 76.982,185.833 76.903,185.833 76.760 C 185.833 76.609,185.977 76.500,186.177 76.500 C 186.365 76.500,186.479 76.434,186.429 76.353 C 186.379 76.272,186.566 76.111,186.844 75.996 C 187.174 75.859,187.319 75.702,187.259 75.546 C 187.208 75.414,187.167 75.200,187.167 75.070 C 187.167 74.940,187.061 74.833,186.932 74.833 C 186.774 74.833,186.729 74.716,186.792 74.474 C 186.862 74.204,186.831 74.149,186.665 74.251 C 186.501 74.352,186.473 74.311,186.557 74.092 C 186.644 73.866,186.607 73.821,186.400 73.900 C 186.199 73.977,186.157 73.934,186.235 73.728 C 186.328 73.487,186.305 73.482,186.055 73.685 C 185.867 73.838,185.812 73.846,185.894 73.709 C 185.963 73.594,185.902 73.334,185.760 73.130 C 185.617 72.926,185.499 72.832,185.497 72.921 C 185.496 73.010,185.338 72.840,185.148 72.542 C 184.957 72.244,184.733 72.042,184.650 72.093 C 184.568 72.145,184.500 72.075,184.500 71.939 C 184.500 71.802,184.315 71.545,184.089 71.368 C 183.863 71.190,183.725 70.997,183.783 70.939 C 183.841 70.881,183.801 70.833,183.694 70.833 C 183.588 70.833,183.500 70.718,183.500 70.578 C 183.500 70.438,183.387 70.280,183.250 70.227 C 183.112 70.174,183.000 70.027,183.000 69.899 C 183.000 69.771,182.906 69.685,182.792 69.708 C 182.677 69.731,182.601 69.658,182.623 69.547 C 182.645 69.435,182.512 69.262,182.327 69.163 C 182.142 69.064,182.042 68.900,182.104 68.799 C 182.173 68.688,182.142 68.662,182.025 68.734 C 181.908 68.807,181.769 68.686,181.670 68.427 C 181.581 68.192,181.440 68.000,181.357 68.000 C 181.274 68.000,181.164 67.842,181.114 67.650 C 181.064 67.457,180.943 67.349,180.845 67.410 C 180.747 67.470,180.667 67.434,180.667 67.330 C 180.667 67.226,180.367 66.844,180.000 66.480 C 179.633 66.117,179.333 65.766,179.333 65.700 C 179.333 65.634,179.185 65.488,179.005 65.375 C 178.812 65.255,178.716 65.066,178.772 64.918 C 178.835 64.754,178.770 64.667,178.583 64.667 C 178.398 64.667,178.331 64.579,178.394 64.417 C 178.446 64.279,178.398 64.163,178.286 64.160 C 178.175 64.156,177.899 63.931,177.674 63.660 C 177.281 63.185,175.973 62.886,176.250 63.334 C 176.307 63.425,176.148 63.579,175.898 63.674 C 175.647 63.769,175.266 64.037,175.052 64.269 C 174.837 64.500,174.531 64.663,174.372 64.631 C 174.213 64.598,173.998 64.684,173.893 64.821 C 173.788 64.959,173.417 65.081,173.068 65.093 C 172.719 65.105,172.405 65.202,172.370 65.308 C 172.276 65.589,171.409 65.542,171.160 65.242 C 170.989 65.036,170.918 65.028,170.809 65.200 C 170.718 65.343,170.671 65.351,170.669 65.224 C 170.668 65.112,170.523 65.069,170.323 65.121 C 169.899 65.232,168.671 64.665,168.669 64.357 C 168.667 64.223,168.563 64.171,168.413 64.228 C 168.080 64.356,166.833 63.116,166.833 62.657 C 166.833 62.468,166.764 62.357,166.679 62.409 C 166.594 62.462,166.476 62.354,166.417 62.169 C 166.359 61.984,166.210 61.833,166.087 61.833 C 165.947 61.833,165.880 61.677,165.908 61.417 C 165.937 61.154,165.870 61.000,165.727 61.000 C 165.536 61.000,165.398 60.328,165.542 60.101 C 165.565 60.065,165.454 59.893,165.297 59.719 C 165.108 59.510,165.000 59.082,164.980 58.457 C 164.959 57.828,164.888 57.546,164.766 57.614 C 164.666 57.670,164.677 57.615,164.792 57.491 C 165.031 57.233,165.073 56.935,164.851 57.073 C 164.612 57.220,164.500 56.721,164.500 55.504 C 164.500 54.698,164.566 54.344,164.728 54.282 C 164.892 54.219,164.959 53.832,164.967 52.901 C 164.975 51.997,165.047 51.571,165.205 51.482 C 165.329 51.413,165.449 51.072,165.473 50.725 C 165.496 50.378,165.570 50.054,165.637 50.005 C 165.703 49.956,165.899 49.692,166.072 49.417 C 166.244 49.142,166.486 48.857,166.610 48.783 C 166.733 48.710,166.833 48.541,166.833 48.408 C 166.833 48.275,166.907 48.167,166.997 48.167 C 167.087 48.167,167.207 47.979,167.265 47.750 C 167.322 47.521,167.468 47.333,167.589 47.333 C 167.709 47.333,168.043 47.135,168.331 46.893 C 168.618 46.651,169.018 46.442,169.218 46.428 C 169.419 46.414,169.565 46.312,169.542 46.202 C 169.514 46.069,169.745 46.000,170.218 46.000 C 170.613 46.000,171.082 45.890,171.260 45.755 C 171.668 45.446,172.737 45.410,172.622 45.710 C 172.565 45.859,172.804 45.933,173.457 45.967 C 173.963 45.993,174.477 46.120,174.607 46.250 C 174.737 46.380,174.953 46.443,175.088 46.392 C 175.253 46.328,175.333 46.406,175.333 46.629 C 175.333 46.825,175.475 46.998,175.679 47.052 C 175.869 47.101,176.065 47.297,176.115 47.488 C 176.165 47.678,176.280 47.833,176.371 47.833 C 176.461 47.833,176.495 47.940,176.445 48.070 C 176.395 48.199,176.467 48.349,176.605 48.402 C 176.769 48.465,176.820 48.614,176.750 48.833 C 176.675 49.070,176.720 49.167,176.905 49.167 C 177.143 49.167,177.240 49.524,177.211 50.292 C 177.207 50.406,177.320 50.500,177.463 50.500 C 177.606 50.500,177.680 50.542,177.628 50.594 C 177.576 50.646,175.662 50.681,173.374 50.673 C 168.845 50.655,168.333 50.731,168.333 51.422 C 168.333 51.659,168.267 51.812,168.186 51.762 C 167.998 51.646,167.839 52.233,167.836 53.052 C 167.834 53.401,167.770 53.647,167.692 53.599 C 167.615 53.551,167.568 53.847,167.589 54.256 C 167.611 54.665,167.580 55.000,167.522 55.000 C 167.327 55.000,167.448 56.198,167.656 56.327 C 167.806 56.420,167.784 56.483,167.572 56.565 C 167.297 56.670,167.297 56.687,167.571 56.887 C 167.779 57.039,167.872 57.384,167.907 58.138 C 167.934 58.710,167.991 59.213,168.035 59.257 C 168.090 59.313,189.769 59.374,195.708 59.335 C 195.956 59.334,196.000 59.170,196.000 58.250 C 196.000 57.599,196.070 57.167,196.177 57.167 C 196.274 57.167,196.310 57.097,196.257 57.012 C 196.204 56.926,196.224 56.817,196.302 56.770 C 196.577 56.599,196.540 54.838,196.259 54.730 C 196.049 54.650,196.000 54.319,196.000 52.982 C 196.000 52.030,195.932 51.333,195.839 51.333 C 195.750 51.333,195.720 51.221,195.773 51.083 C 195.826 50.946,195.795 50.833,195.705 50.833 C 195.614 50.833,195.552 50.392,195.565 49.833 C 195.582 49.103,195.529 48.833,195.368 48.833 C 195.246 48.833,195.193 48.758,195.250 48.667 C 195.307 48.575,195.282 48.500,195.196 48.500 C 195.109 48.500,195.050 48.172,195.063 47.770 C 195.081 47.244,195.029 47.063,194.877 47.122 C 194.751 47.170,194.667 47.070,194.667 46.872 C 194.667 46.690,194.554 46.447,194.417 46.333 C 194.279 46.219,194.167 45.910,194.167 45.646 C 194.167 45.382,194.093 45.167,194.002 45.167 C 193.911 45.167,193.789 44.867,193.731 44.500 C 193.672 44.133,193.559 43.833,193.479 43.833 C 193.399 43.833,193.333 43.721,193.333 43.583 C 193.333 43.446,193.221 43.333,193.083 43.333 C 192.943 43.333,192.833 43.185,192.833 42.995 C 192.833 42.809,192.721 42.613,192.583 42.560 C 192.446 42.508,192.333 42.326,192.333 42.157 C 192.333 41.988,192.234 41.790,192.112 41.717 C 191.991 41.643,191.841 41.447,191.780 41.281 C 191.719 41.115,191.593 41.026,191.501 41.083 C 191.409 41.140,191.333 41.032,191.333 40.843 C 191.333 40.639,191.225 40.500,191.066 40.500 C 190.888 40.500,190.832 40.410,190.901 40.231 C 190.974 40.039,190.932 39.990,190.752 40.060 C 190.588 40.123,190.499 40.056,190.497 39.870 C 190.496 39.712,190.414 39.471,190.315 39.333 C 190.165 39.124,190.151 39.133,190.232 39.384 C 190.289 39.560,190.261 39.642,190.165 39.582 C 190.074 39.526,190.000 39.293,190.000 39.064 C 190.000 38.834,189.930 38.690,189.845 38.743 C 189.760 38.796,189.642 38.761,189.583 38.667 C 189.525 38.572,189.408 38.537,189.324 38.589 C 189.239 38.641,189.215 38.567,189.270 38.423 C 189.347 38.224,189.297 38.190,189.060 38.279 C 188.777 38.386,188.772 38.369,189.000 38.087 C 189.217 37.820,189.218 37.790,189.005 37.860 C 188.754 37.943,188.125 37.422,187.954 36.991 C 187.888 36.823,187.856 36.815,187.846 36.964 C 187.839 37.088,187.628 36.982,187.348 36.714 C 186.642 36.039,186.379 35.844,186.292 35.931 C 186.249 35.973,186.119 35.894,186.003 35.754 C 185.887 35.614,185.727 35.500,185.648 35.500 C 185.568 35.500,185.288 35.275,185.025 35.000 C 184.762 34.725,184.428 34.500,184.282 34.500 C 184.136 34.500,183.943 34.369,183.853 34.208 C 183.764 34.048,183.647 33.935,183.595 33.958 C 183.322 34.078,183.000 33.971,183.000 33.761 C 183.000 33.600,182.870 33.546,182.601 33.594 C 182.349 33.640,182.167 33.575,182.106 33.417 C 182.054 33.279,181.829 33.167,181.606 33.167 C 181.384 33.167,181.159 33.054,181.106 32.917 C 181.049 32.768,180.799 32.667,180.487 32.667 C 180.136 32.667,179.991 32.598,180.045 32.458 C 180.101 32.311,179.875 32.233,179.285 32.197 C 178.822 32.169,178.236 32.039,177.980 31.907 C 177.725 31.775,177.257 31.667,176.939 31.667 C 176.621 31.667,176.334 31.586,176.301 31.487 C 176.241 31.307,171.589 31.195,168.425 31.299 M286.419 31.303 C 286.389 31.333,286.152 31.378,285.891 31.405 C 285.630 31.431,285.291 31.506,285.138 31.572 C 284.759 31.735,284.354 31.805,283.698 31.821 C 283.376 31.828,283.190 31.903,283.250 32.000 C 283.338 32.142,282.291 32.256,282.109 32.125 C 282.077 32.102,281.913 32.196,281.744 32.333 C 281.470 32.556,281.450 32.556,281.564 32.333 C 281.638 32.189,281.591 32.206,281.452 32.375 C 281.321 32.535,281.088 32.667,280.935 32.667 C 280.782 32.667,280.613 32.779,280.560 32.917 C 280.506 33.057,280.259 33.167,279.996 33.167 C 279.364 33.167,278.978 33.330,279.110 33.543 C 279.170 33.639,279.143 33.671,279.050 33.614 C 278.958 33.557,278.515 33.747,278.066 34.037 C 277.617 34.327,277.137 34.568,277.000 34.574 C 276.862 34.579,276.769 34.677,276.792 34.792 C 276.815 34.906,276.716 35.000,276.572 35.000 C 276.293 35.000,275.171 35.777,274.950 36.124 C 274.877 36.239,274.716 36.333,274.593 36.333 C 274.470 36.333,274.326 36.446,274.273 36.583 C 274.220 36.721,274.044 36.834,273.880 36.834 C 273.717 36.834,273.433 37.059,273.250 37.333 C 273.067 37.608,272.823 37.833,272.708 37.833 C 272.594 37.833,272.500 37.954,272.500 38.101 C 272.500 38.275,272.409 38.334,272.241 38.270 C 272.099 38.215,272.024 38.238,272.075 38.320 C 272.126 38.402,271.642 39.003,271.000 39.655 C 269.937 40.735,269.754 41.000,269.814 41.375 C 269.833 41.495,269.566 41.565,269.279 41.516 C 269.204 41.502,269.189 41.568,269.246 41.661 C 269.304 41.753,269.159 42.036,268.925 42.288 C 268.691 42.540,268.500 42.824,268.500 42.920 C 268.500 43.015,268.350 43.221,268.167 43.378 C 267.983 43.535,267.833 43.814,267.833 43.998 C 267.833 44.183,267.758 44.333,267.667 44.333 C 267.575 44.333,267.500 44.484,267.500 44.668 C 267.500 44.853,267.359 45.124,267.187 45.271 C 267.005 45.427,266.909 45.670,266.957 45.853 C 267.012 46.063,266.951 46.167,266.775 46.167 C 266.619 46.167,266.547 46.261,266.598 46.395 C 266.646 46.521,266.564 46.746,266.414 46.895 C 266.214 47.096,266.201 47.168,266.363 47.172 C 266.502 47.175,266.475 47.240,266.292 47.347 C 266.092 47.463,266.000 47.724,266.000 48.175 C 266.000 48.537,265.928 48.833,265.841 48.833 C 265.753 48.833,265.631 49.115,265.569 49.458 C 265.507 49.802,265.373 50.191,265.270 50.324 C 265.121 50.516,265.133 50.535,265.333 50.417 C 265.549 50.290,265.552 50.308,265.354 50.552 C 265.213 50.726,265.125 51.245,265.125 51.907 C 265.125 52.577,265.051 53.009,264.929 53.056 C 264.683 53.150,264.615 58.818,264.857 59.110 C 264.944 59.217,265.054 59.852,265.101 60.522 C 265.148 61.191,265.259 61.827,265.349 61.935 C 265.438 62.043,265.526 62.458,265.544 62.857 C 265.562 63.257,265.670 63.658,265.785 63.750 C 265.899 63.842,266.011 64.179,266.032 64.500 C 266.054 64.821,266.168 65.182,266.286 65.304 C 266.404 65.425,266.500 65.781,266.500 66.095 C 266.500 66.492,266.576 66.667,266.750 66.667 C 266.887 66.667,267.000 66.754,267.000 66.860 C 267.000 67.242,267.921 68.992,268.125 68.996 C 268.244 68.998,268.333 69.213,268.333 69.500 C 268.333 69.833,268.417 70.000,268.583 70.000 C 268.721 70.000,268.833 70.104,268.833 70.232 C 268.833 70.360,268.954 70.511,269.102 70.568 C 269.273 70.633,269.339 70.792,269.285 71.002 C 269.220 71.250,269.281 71.333,269.525 71.333 C 269.706 71.333,269.812 71.400,269.761 71.483 C 269.710 71.565,269.781 71.675,269.918 71.727 C 270.055 71.780,270.167 71.938,270.167 72.078 C 270.167 72.218,270.279 72.333,270.417 72.333 C 270.554 72.333,270.667 72.446,270.667 72.583 C 270.667 72.721,270.779 72.833,270.917 72.833 C 271.056 72.833,271.167 72.981,271.167 73.167 C 271.167 73.350,271.242 73.500,271.333 73.500 C 271.551 73.500,272.079 74.032,272.216 74.388 C 272.275 74.541,272.473 74.667,272.656 74.667 C 272.848 74.667,273.095 74.861,273.238 75.125 C 273.375 75.377,273.490 75.522,273.493 75.446 C 273.497 75.371,273.617 75.427,273.761 75.570 C 273.904 75.713,273.967 75.918,273.902 76.024 C 273.832 76.136,273.854 76.173,273.953 76.113 C 274.047 76.054,274.293 76.154,274.500 76.333 C 274.707 76.513,274.953 76.612,275.047 76.554 C 275.141 76.496,275.168 76.530,275.107 76.629 C 275.045 76.728,275.146 76.857,275.331 76.916 C 275.516 76.975,275.667 77.092,275.667 77.178 C 275.667 77.263,275.768 77.333,275.891 77.333 C 276.014 77.333,276.251 77.484,276.418 77.668 C 276.584 77.852,276.840 77.983,276.985 77.959 C 277.132 77.936,277.230 78.015,277.204 78.137 C 277.178 78.265,277.238 78.309,277.348 78.241 C 277.452 78.177,277.585 78.190,277.644 78.270 C 277.825 78.520,278.480 78.833,278.821 78.833 C 279.000 78.833,279.201 78.920,279.266 79.026 C 279.345 79.153,279.311 79.173,279.167 79.083 C 279.021 78.993,278.989 79.014,279.069 79.144 C 279.135 79.251,279.256 79.298,279.337 79.248 C 279.417 79.198,279.767 79.309,280.114 79.495 C 280.461 79.681,280.877 79.833,281.039 79.833 C 281.201 79.833,281.333 79.891,281.333 79.961 C 281.333 80.135,282.883 80.518,284.000 80.620 C 284.504 80.666,284.942 80.771,284.973 80.853 C 285.003 80.935,285.097 80.960,285.181 80.908 C 285.265 80.856,285.333 80.889,285.333 80.981 C 285.333 81.281,294.070 81.225,294.659 80.921 C 294.929 80.781,295.523 80.667,295.978 80.667 C 296.488 80.667,296.832 80.587,296.874 80.460 C 296.917 80.332,297.176 80.273,297.555 80.306 C 297.968 80.342,298.167 80.290,298.167 80.146 C 298.167 79.991,298.217 79.983,298.350 80.117 C 298.483 80.250,298.621 80.212,298.856 79.977 C 299.034 79.800,299.243 79.694,299.322 79.743 C 299.401 79.792,299.508 79.719,299.561 79.582 C 299.613 79.445,299.831 79.333,300.045 79.333 C 300.258 79.333,300.534 79.240,300.658 79.125 C 300.840 78.956,300.860 78.964,300.762 79.167 C 300.689 79.320,300.735 79.303,300.881 79.125 C 301.013 78.965,301.239 78.833,301.385 78.833 C 301.531 78.833,301.723 78.703,301.813 78.543 C 301.902 78.383,302.029 78.307,302.096 78.374 C 302.163 78.440,302.324 78.365,302.454 78.206 C 302.585 78.047,302.644 78.010,302.587 78.123 C 302.518 78.259,302.571 78.296,302.741 78.230 C 302.884 78.176,303.000 78.060,303.000 77.972 C 303.000 77.885,303.077 77.861,303.171 77.919 C 303.265 77.977,303.321 77.925,303.296 77.804 C 303.268 77.672,303.435 77.562,303.708 77.531 C 303.961 77.502,304.246 77.331,304.342 77.151 C 304.438 76.971,304.588 76.868,304.675 76.922 C 304.762 76.976,304.833 76.903,304.833 76.760 C 304.833 76.526,304.937 76.469,305.277 76.515 C 305.337 76.523,305.453 76.411,305.535 76.265 C 305.617 76.119,305.792 76.000,305.925 76.000 C 306.069 76.000,306.167 75.838,306.167 75.597 C 306.167 75.025,305.995 74.650,305.790 74.777 C 305.689 74.839,305.665 74.805,305.733 74.695 C 305.797 74.590,305.699 74.342,305.514 74.144 C 305.329 73.945,305.225 73.708,305.282 73.616 C 305.338 73.524,305.302 73.500,305.200 73.563 C 305.097 73.627,304.921 73.496,304.800 73.264 C 304.681 73.037,304.508 72.828,304.417 72.801 C 304.325 72.773,304.269 72.694,304.292 72.625 C 304.315 72.556,304.221 72.500,304.083 72.500 C 303.946 72.500,303.833 72.396,303.833 72.268 C 303.833 72.140,303.722 71.993,303.586 71.941 C 303.433 71.882,303.380 71.738,303.448 71.562 C 303.516 71.384,303.491 71.319,303.381 71.387 C 303.284 71.447,303.102 71.370,302.977 71.216 C 302.821 71.023,302.815 70.975,302.958 71.061 C 303.073 71.130,303.167 71.143,303.167 71.089 C 303.167 71.036,302.981 70.921,302.753 70.835 C 302.477 70.729,302.372 70.592,302.438 70.420 C 302.510 70.234,302.462 70.192,302.269 70.266 C 302.119 70.323,302.000 70.285,302.000 70.181 C 302.000 70.077,301.700 69.667,301.333 69.269 C 300.967 68.872,300.667 68.428,300.667 68.283 C 300.667 68.138,300.580 67.966,300.474 67.901 C 300.344 67.820,300.327 67.858,300.420 68.016 C 300.495 68.145,300.394 68.107,300.195 67.933 C 299.996 67.758,299.833 67.517,299.833 67.397 C 299.833 67.277,299.681 67.097,299.495 66.998 C 299.309 66.898,299.203 66.744,299.258 66.654 C 299.313 66.565,299.296 66.512,299.221 66.538 C 298.988 66.615,298.333 65.853,298.333 65.505 C 298.333 65.282,298.253 65.208,298.083 65.273 C 297.910 65.340,297.833 65.262,297.833 65.018 C 297.833 64.806,297.727 64.667,297.566 64.667 C 297.396 64.667,297.333 64.575,297.394 64.417 C 297.447 64.277,297.398 64.167,297.282 64.167 C 297.042 64.167,296.403 63.480,296.463 63.288 C 296.485 63.217,296.209 63.179,295.851 63.204 C 295.492 63.229,295.234 63.307,295.277 63.376 C 295.319 63.446,295.218 63.553,295.052 63.615 C 294.576 63.792,293.839 64.374,293.921 64.507 C 293.962 64.574,293.812 64.664,293.587 64.707 C 293.362 64.750,293.144 64.702,293.102 64.601 C 293.061 64.500,293.020 64.540,293.013 64.691 C 292.997 65.035,292.720 65.143,291.947 65.106 C 291.587 65.089,291.306 65.164,291.258 65.289 C 291.163 65.538,290.386 65.575,290.306 65.334 C 290.258 65.192,289.194 64.959,288.542 64.948 C 288.427 64.946,288.333 64.882,288.333 64.806 C 288.333 64.729,288.183 64.667,288.000 64.667 C 287.804 64.667,287.667 64.556,287.667 64.396 C 287.667 64.163,287.628 64.157,287.385 64.355 C 287.193 64.510,287.143 64.517,287.228 64.375 C 287.297 64.260,287.279 64.167,287.188 64.167 C 286.958 64.167,285.969 63.184,285.593 62.583 C 285.421 62.308,285.187 62.027,285.072 61.958 C 284.957 61.889,284.883 61.646,284.908 61.417 C 284.937 61.154,284.870 61.000,284.727 61.000 C 284.590 61.000,284.500 60.817,284.500 60.537 C 284.500 60.282,284.385 59.910,284.244 59.708 C 284.094 59.494,283.983 58.965,283.977 58.434 C 283.971 57.935,283.861 57.324,283.733 57.078 C 283.375 56.388,283.445 53.843,283.815 54.072 C 283.878 54.111,283.929 53.998,283.929 53.821 C 283.929 53.644,283.867 53.500,283.792 53.500 C 283.717 53.500,283.719 53.369,283.797 53.208 C 283.875 53.048,283.958 52.617,283.981 52.250 C 284.004 51.883,284.124 51.504,284.248 51.408 C 284.372 51.311,284.499 50.974,284.529 50.658 C 284.559 50.342,284.666 50.099,284.768 50.117 C 284.872 50.136,284.932 49.969,284.906 49.732 C 284.880 49.489,284.960 49.274,285.097 49.222 C 285.227 49.172,285.333 49.065,285.333 48.983 C 285.333 48.703,286.051 48.012,286.233 48.116 C 286.334 48.173,286.363 48.161,286.298 48.088 C 286.099 47.868,286.489 47.333,286.849 47.333 C 287.035 47.333,287.145 47.267,287.095 47.185 C 286.960 46.968,287.854 46.431,288.292 46.466 C 288.526 46.485,288.667 46.403,288.667 46.248 C 288.667 46.112,288.798 45.992,288.958 45.983 C 289.119 45.974,289.475 45.955,289.750 45.942 C 290.025 45.928,290.310 45.823,290.383 45.708 C 290.531 45.478,291.500 45.418,291.500 45.639 C 291.500 45.715,291.594 45.789,291.708 45.802 C 291.823 45.815,292.104 45.856,292.333 45.892 C 292.563 45.928,292.923 45.967,293.135 45.979 C 293.348 45.991,293.473 46.075,293.415 46.169 C 293.358 46.262,293.537 46.382,293.820 46.439 C 294.099 46.495,294.292 46.598,294.249 46.668 C 294.206 46.738,294.320 46.834,294.502 46.882 C 294.684 46.930,294.833 47.093,294.833 47.244 C 294.833 47.396,294.903 47.477,294.988 47.424 C 295.073 47.372,295.196 47.498,295.260 47.706 C 295.325 47.913,295.443 48.125,295.522 48.176 C 295.601 48.227,295.682 48.471,295.702 48.718 C 295.723 48.965,295.826 49.167,295.932 49.167 C 296.155 49.167,296.384 50.116,296.224 50.376 C 296.160 50.479,296.195 50.502,296.308 50.433 C 296.416 50.366,296.500 50.409,296.500 50.532 C 296.500 50.707,295.703 50.740,292.458 50.700 C 287.711 50.641,287.333 50.682,287.333 51.258 C 287.333 51.510,287.238 51.667,287.083 51.667 C 286.891 51.667,286.833 51.880,286.833 52.583 C 286.833 53.087,286.764 53.500,286.680 53.500 C 286.595 53.500,286.544 53.837,286.566 54.250 C 286.588 54.663,286.540 55.000,286.461 55.000 C 286.244 55.000,286.385 56.550,286.625 56.804 C 286.830 57.021,286.907 57.613,286.853 58.573 C 286.838 58.843,286.876 59.013,286.938 58.951 C 287.000 58.889,287.133 58.949,287.234 59.084 C 287.422 59.336,314.435 59.496,314.837 59.247 C 314.927 59.192,315.000 58.696,315.000 58.145 C 315.000 57.456,315.082 57.061,315.262 56.881 C 315.455 56.688,315.473 56.586,315.328 56.497 C 315.186 56.409,315.183 56.343,315.316 56.261 C 315.590 56.092,315.541 54.908,315.250 54.667 C 315.062 54.511,315.000 54.090,315.000 52.968 C 315.000 51.864,314.935 51.411,314.750 51.226 C 314.581 51.058,314.500 50.639,314.500 49.942 C 314.500 49.368,314.403 48.761,314.282 48.579 C 314.162 48.398,314.049 48.033,314.032 47.767 C 314.014 47.501,313.925 47.194,313.833 47.083 C 313.742 46.973,313.651 46.690,313.631 46.453 C 313.612 46.217,313.520 46.037,313.427 46.053 C 313.334 46.070,313.231 45.902,313.197 45.681 C 313.164 45.460,313.031 45.174,312.902 45.044 C 312.772 44.915,312.661 44.534,312.654 44.196 C 312.646 43.859,312.602 43.679,312.555 43.795 C 312.446 44.067,311.845 43.328,311.743 42.796 C 311.703 42.588,311.594 42.393,311.502 42.362 C 311.409 42.331,311.333 42.195,311.333 42.060 C 311.333 41.924,311.266 41.855,311.183 41.907 C 311.100 41.958,310.952 41.769,310.854 41.487 C 310.756 41.206,310.598 41.023,310.504 41.081 C 310.410 41.139,310.333 41.077,310.333 40.944 C 310.333 40.811,310.221 40.659,310.083 40.606 C 309.946 40.554,309.833 40.396,309.833 40.255 C 309.833 40.115,309.777 39.998,309.708 39.996 C 309.640 39.993,309.401 39.695,309.177 39.332 C 308.954 38.970,308.741 38.703,308.705 38.740 C 308.606 38.838,308.000 38.194,308.000 37.990 C 308.000 37.893,307.933 37.855,307.852 37.905 C 307.658 38.025,307.299 37.589,307.460 37.429 C 307.528 37.361,307.508 37.321,307.417 37.339 C 307.076 37.408,306.817 37.329,306.907 37.183 C 306.958 37.100,306.769 36.952,306.487 36.854 C 306.206 36.756,306.016 36.610,306.065 36.529 C 306.115 36.449,305.970 36.285,305.744 36.164 C 305.518 36.043,305.333 35.877,305.333 35.795 C 305.333 35.714,305.261 35.691,305.173 35.746 C 304.961 35.877,304.333 35.476,304.333 35.210 C 304.333 35.094,304.218 35.000,304.078 35.000 C 303.938 35.000,303.782 34.892,303.731 34.761 C 303.680 34.629,303.545 34.557,303.430 34.601 C 303.314 34.646,303.124 34.566,303.006 34.424 C 302.889 34.283,302.692 34.167,302.569 34.167 C 302.447 34.167,302.205 34.015,302.032 33.829 C 301.840 33.623,301.610 33.532,301.442 33.597 C 301.256 33.668,301.167 33.615,301.167 33.434 C 301.167 33.248,301.015 33.167,300.667 33.167 C 300.392 33.167,300.167 33.093,300.167 33.003 C 300.167 32.913,299.960 32.790,299.708 32.730 C 299.456 32.670,299.169 32.558,299.071 32.481 C 298.972 32.404,298.603 32.295,298.251 32.239 C 297.899 32.183,297.417 32.058,297.181 31.961 C 296.944 31.865,296.492 31.759,296.178 31.728 C 295.863 31.696,295.563 31.609,295.511 31.535 C 295.372 31.337,286.608 31.114,286.419 31.303 M45.333 31.944 C 45.333 32.097,45.383 32.173,45.443 32.112 C 45.504 32.052,45.656 32.149,45.781 32.327 C 45.909 32.510,46.117 32.611,46.255 32.559 C 46.403 32.502,46.500 32.562,46.500 32.711 C 46.500 32.854,46.717 33.002,47.011 33.061 C 47.295 33.117,47.476 33.238,47.418 33.331 C 47.360 33.424,47.468 33.500,47.657 33.500 C 47.851 33.500,48.000 33.609,48.000 33.750 C 48.000 33.887,48.117 34.000,48.260 34.000 C 48.403 34.000,48.473 34.075,48.417 34.167 C 48.360 34.258,48.393 34.343,48.490 34.354 C 49.117 34.428,49.745 34.707,49.954 35.005 C 50.067 35.165,50.351 35.344,50.586 35.403 C 50.821 35.462,50.978 35.567,50.935 35.637 C 50.892 35.707,51.009 35.776,51.195 35.790 C 51.381 35.804,51.636 35.950,51.761 36.116 C 51.887 36.281,51.992 36.344,51.995 36.255 C 51.998 36.165,52.118 36.260,52.261 36.466 C 52.405 36.671,52.588 36.798,52.668 36.749 C 52.748 36.699,53.046 36.886,53.329 37.163 C 53.613 37.440,53.997 37.667,54.182 37.667 C 54.368 37.667,54.473 37.742,54.417 37.833 C 54.360 37.925,54.397 38.000,54.499 38.000 C 54.658 38.000,54.348 38.325,53.549 38.997 C 53.438 39.091,53.221 39.167,53.067 39.167 C 52.913 39.167,52.702 39.283,52.598 39.424 C 52.495 39.566,52.241 39.694,52.034 39.710 C 51.812 39.727,51.691 39.822,51.737 39.944 C 51.788 40.077,51.721 40.113,51.548 40.047 C 51.378 39.981,51.320 40.010,51.391 40.125 C 51.458 40.233,51.267 40.384,50.917 40.500 C 50.594 40.606,50.373 40.762,50.425 40.847 C 50.477 40.931,50.365 41.000,50.177 41.000 C 49.983 41.000,49.833 41.109,49.833 41.250 C 49.833 41.387,49.686 41.500,49.506 41.500 C 49.326 41.500,48.954 41.719,48.680 41.987 C 48.360 42.300,48.069 42.443,47.864 42.390 C 47.638 42.331,47.518 42.412,47.451 42.670 C 47.398 42.872,47.277 42.985,47.178 42.924 C 47.080 42.863,47.000 42.931,47.000 43.073 C 47.000 43.217,46.859 43.333,46.684 43.333 C 46.511 43.333,46.326 43.446,46.273 43.583 C 46.220 43.721,46.062 43.833,45.922 43.833 C 45.782 43.833,45.667 43.908,45.667 44.000 C 45.667 44.243,45.173 44.205,45.129 43.958 C 45.026 43.380,45.101 31.668,45.208 31.668 C 45.277 31.667,45.333 31.792,45.333 31.944 M193.839 32.625 C 193.842 32.877,193.952 33.271,194.083 33.500 C 194.214 33.729,194.324 34.127,194.327 34.385 C 194.331 34.653,194.404 34.809,194.500 34.750 C 194.592 34.693,194.678 34.745,194.692 34.865 C 194.706 34.985,194.735 35.158,194.756 35.250 C 194.777 35.342,194.804 35.515,194.814 35.635 C 194.825 35.755,194.908 35.807,195.000 35.750 C 195.092 35.693,195.167 35.804,195.167 35.995 C 195.167 36.187,195.279 36.387,195.417 36.440 C 195.560 36.495,195.667 36.744,195.667 37.023 C 195.667 37.305,195.773 37.551,195.920 37.608 C 196.059 37.661,196.162 37.790,196.150 37.894 C 196.086 38.427,196.182 38.696,196.406 38.611 C 196.553 38.554,196.649 38.627,196.656 38.801 C 196.693 39.685,196.748 39.970,196.867 39.896 C 196.983 39.824,197.017 39.919,196.994 40.256 C 196.991 40.305,197.103 40.460,197.244 40.601 C 197.385 40.742,197.500 40.993,197.500 41.158 C 197.500 41.324,197.612 41.553,197.750 41.667 C 197.887 41.781,198.000 42.044,198.000 42.253 C 198.000 42.461,198.121 42.677,198.269 42.734 C 198.451 42.804,198.512 42.972,198.459 43.251 C 198.414 43.485,198.478 43.746,198.607 43.853 C 198.731 43.956,198.833 44.119,198.833 44.216 C 198.833 44.312,198.943 44.512,199.078 44.661 C 199.213 44.810,199.341 45.172,199.364 45.466 C 199.387 45.769,199.497 46.000,199.619 46.000 C 199.737 46.000,199.833 46.152,199.833 46.339 C 199.833 46.525,199.951 46.722,200.094 46.777 C 200.276 46.847,200.340 47.051,200.306 47.447 C 200.277 47.781,200.346 48.072,200.473 48.150 C 200.592 48.223,200.706 48.400,200.727 48.542 C 200.748 48.684,200.855 48.909,200.965 49.042 C 201.076 49.175,201.182 49.477,201.202 49.713 C 201.221 49.950,201.307 50.130,201.393 50.113 C 201.478 50.097,201.615 50.330,201.697 50.631 C 201.779 50.932,201.918 51.134,202.006 51.079 C 202.095 51.025,202.167 51.135,202.167 51.323 C 202.167 51.869,202.177 51.902,202.445 52.198 C 202.585 52.352,202.654 52.553,202.598 52.643 C 202.542 52.733,202.607 52.916,202.741 53.050 C 202.875 53.184,202.938 53.340,202.881 53.397 C 202.824 53.454,202.863 53.500,202.967 53.500 C 203.071 53.500,203.118 53.600,203.071 53.723 C 203.023 53.846,203.101 54.043,203.242 54.160 C 203.384 54.278,203.500 54.544,203.500 54.753 C 203.500 54.961,203.612 55.174,203.750 55.227 C 203.887 55.280,204.000 55.481,204.000 55.673 C 204.000 55.866,204.204 56.373,204.454 56.799 C 204.704 57.226,204.886 57.746,204.859 57.955 C 204.829 58.182,204.915 58.375,205.071 58.435 C 205.215 58.490,205.333 58.711,205.333 58.925 C 205.333 59.139,205.420 59.367,205.526 59.433 C 205.653 59.511,205.673 59.478,205.583 59.333 C 205.494 59.189,205.514 59.155,205.641 59.234 C 205.747 59.299,205.833 59.564,205.833 59.823 C 205.833 60.081,205.946 60.386,206.083 60.500 C 206.221 60.614,206.333 60.848,206.333 61.020 C 206.333 61.193,206.421 61.333,206.528 61.333 C 206.635 61.333,206.678 61.377,206.625 61.431 C 206.484 61.572,206.851 62.553,207.120 62.753 C 207.246 62.847,207.360 63.085,207.375 63.283 C 207.390 63.481,207.462 63.607,207.535 63.562 C 207.607 63.517,207.667 63.642,207.667 63.839 C 207.667 64.207,208.085 65.067,208.458 65.467 C 208.573 65.590,208.667 65.902,208.667 66.161 C 208.667 66.423,208.776 66.673,208.914 66.726 C 209.066 66.784,209.120 66.929,209.053 67.101 C 208.989 67.269,209.054 67.460,209.214 67.578 C 209.373 67.694,209.500 68.063,209.524 68.476 C 209.554 68.972,209.629 69.153,209.783 69.094 C 209.973 69.021,210.083 69.307,210.020 69.708 C 210.009 69.777,210.087 69.815,210.194 69.792 C 210.301 69.769,210.445 70.010,210.514 70.329 C 210.583 70.647,210.717 70.933,210.811 70.965 C 210.904 70.996,210.940 71.129,210.889 71.261 C 210.839 71.392,210.885 71.500,210.992 71.500 C 211.099 71.500,211.140 71.575,211.083 71.667 C 211.027 71.758,211.051 71.833,211.138 71.833 C 211.225 71.833,211.334 72.040,211.382 72.292 C 211.523 73.040,211.951 74.067,212.149 74.133 C 212.250 74.167,212.333 74.376,212.333 74.597 C 212.333 74.819,212.403 75.000,212.489 75.000 C 212.657 75.000,212.926 75.655,212.858 75.901 C 212.835 75.985,212.905 76.108,213.015 76.176 C 213.241 76.316,213.660 77.425,213.664 77.893 C 213.666 78.082,213.753 78.169,213.889 78.117 C 214.109 78.033,214.136 78.108,214.184 78.910 C 214.197 79.135,214.288 79.304,214.386 79.285 C 214.484 79.266,214.595 79.400,214.634 79.583 C 214.673 79.767,214.775 79.961,214.861 80.015 C 214.946 80.069,215.033 80.294,215.054 80.515 C 215.151 81.528,216.333 82.790,216.333 81.881 C 216.333 81.763,216.429 81.667,216.547 81.667 C 216.664 81.667,216.777 81.472,216.796 81.235 C 216.838 80.732,216.975 80.465,217.139 80.566 C 217.203 80.606,217.264 80.405,217.276 80.122 C 217.287 79.838,217.419 79.516,217.568 79.407 C 217.717 79.298,217.798 79.101,217.747 78.970 C 217.697 78.838,217.808 78.555,217.994 78.340 C 218.181 78.125,218.333 77.810,218.333 77.641 C 218.333 77.472,218.408 77.333,218.500 77.333 C 218.592 77.333,218.667 77.108,218.667 76.833 C 218.667 76.537,218.754 76.333,218.881 76.333 C 218.999 76.333,219.108 76.166,219.124 75.961 C 219.139 75.756,219.231 75.562,219.327 75.530 C 219.423 75.498,219.460 75.403,219.408 75.319 C 219.356 75.235,219.406 75.167,219.518 75.167 C 219.630 75.167,219.678 75.123,219.625 75.069 C 219.489 74.934,219.832 74.000,220.016 74.000 C 220.099 74.000,220.167 73.848,220.167 73.661 C 220.167 73.475,220.271 73.283,220.398 73.234 C 220.532 73.183,220.594 73.009,220.546 72.825 C 220.494 72.626,220.564 72.465,220.731 72.401 C 220.893 72.339,221.000 72.105,221.000 71.816 C 221.000 71.548,221.082 71.352,221.186 71.375 C 221.288 71.398,221.402 71.232,221.440 71.007 C 221.478 70.782,221.585 70.550,221.679 70.493 C 221.827 70.401,221.906 70.064,221.981 69.198 C 221.991 69.079,222.069 69.023,222.153 69.075 C 222.237 69.127,222.356 68.944,222.416 68.668 C 222.477 68.392,222.586 68.167,222.659 68.167 C 222.731 68.167,222.839 67.863,222.899 67.492 C 222.959 67.115,223.079 66.862,223.170 66.919 C 223.260 66.974,223.333 66.909,223.333 66.773 C 223.333 66.638,223.459 66.277,223.612 65.972 C 224.103 64.994,224.270 64.599,224.498 63.875 C 224.620 63.485,224.780 63.167,224.852 63.167 C 224.925 63.167,225.034 62.905,225.094 62.585 C 225.154 62.265,225.262 62.039,225.334 62.084 C 225.494 62.182,225.666 61.769,225.669 61.278 C 225.671 60.984,225.702 60.963,225.833 61.167 C 225.968 61.375,225.999 61.361,226.019 61.083 C 226.083 60.190,226.142 59.970,226.394 59.692 C 226.544 59.526,226.667 59.261,226.667 59.102 C 226.667 58.943,226.742 58.860,226.833 58.917 C 226.932 58.978,227.000 58.786,227.000 58.447 C 227.000 58.132,227.112 57.781,227.250 57.667 C 227.387 57.553,227.500 57.362,227.500 57.243 C 227.500 57.125,227.587 56.999,227.693 56.963 C 227.799 56.928,227.914 56.719,227.947 56.500 C 227.981 56.280,228.126 55.970,228.270 55.811 C 228.415 55.651,228.486 55.446,228.430 55.355 C 228.309 55.159,228.965 53.833,229.183 53.833 C 229.266 53.833,229.324 53.777,229.314 53.708 C 229.233 53.199,229.397 52.678,229.761 52.285 C 229.997 52.031,230.231 51.563,230.283 51.245 C 230.335 50.927,230.442 50.667,230.522 50.667 C 230.601 50.667,230.667 50.531,230.667 50.365 C 230.667 50.199,230.777 49.918,230.911 49.740 C 231.046 49.562,231.158 49.240,231.161 49.024 C 231.165 48.740,231.238 48.658,231.423 48.730 C 231.574 48.787,231.669 48.743,231.654 48.622 C 231.581 48.060,231.690 47.667,231.917 47.667 C 232.072 47.667,232.167 47.509,232.167 47.250 C 232.167 47.021,232.249 46.852,232.349 46.875 C 232.449 46.898,232.553 46.673,232.579 46.376 C 232.606 46.079,232.743 45.591,232.883 45.293 C 233.618 43.728,234.000 42.837,234.000 42.686 C 234.000 42.593,234.124 42.447,234.275 42.363 C 234.458 42.260,234.517 42.085,234.452 41.836 C 234.380 41.558,234.438 41.441,234.682 41.378 C 234.897 41.321,234.979 41.196,234.921 41.012 C 234.872 40.858,234.942 40.586,235.077 40.408 C 235.212 40.229,235.325 39.952,235.328 39.792 C 235.331 39.631,235.446 39.500,235.583 39.500 C 235.744 39.500,235.834 39.337,235.835 39.042 C 235.836 38.790,236.017 38.269,236.237 37.885 C 236.456 37.501,236.686 36.958,236.748 36.677 C 236.809 36.396,236.919 36.167,236.992 36.167 C 237.065 36.167,237.171 35.937,237.227 35.656 C 237.284 35.372,237.404 35.191,237.498 35.249 C 237.597 35.310,237.667 35.151,237.667 34.864 C 237.667 34.594,237.779 34.281,237.917 34.167 C 238.054 34.053,238.167 33.814,238.167 33.636 C 238.167 33.435,238.239 33.358,238.359 33.433 C 238.481 33.508,238.506 33.478,238.428 33.352 C 238.360 33.242,238.372 33.062,238.454 32.951 C 238.977 32.248,239.030 32.252,230.205 32.204 C 221.514 32.157,221.167 32.181,221.167 32.844 C 221.167 33.027,221.054 33.220,220.917 33.273 C 220.769 33.330,220.666 33.583,220.664 33.893 C 220.662 34.292,220.623 34.357,220.500 34.167 C 220.310 33.873,220.305 33.886,220.250 34.737 C 220.228 35.096,220.106 35.472,219.979 35.571 C 219.763 35.741,219.697 35.898,219.585 36.500 C 219.560 36.637,219.450 36.729,219.340 36.704 C 219.231 36.679,219.192 36.740,219.254 36.840 C 219.316 36.939,219.227 37.179,219.058 37.372 C 218.856 37.603,218.836 37.674,219.000 37.580 C 219.201 37.464,219.212 37.483,219.058 37.676 C 218.952 37.809,218.838 38.104,218.804 38.333 C 218.770 38.563,218.650 38.731,218.538 38.708 C 218.414 38.683,218.333 38.857,218.333 39.153 C 218.333 39.420,218.258 39.664,218.165 39.695 C 218.072 39.726,217.962 39.933,217.919 40.155 C 217.876 40.377,217.746 40.619,217.629 40.694 C 217.473 40.792,217.470 40.829,217.617 40.831 C 217.829 40.833,217.451 41.682,217.036 42.135 C 216.918 42.263,216.868 42.512,216.924 42.688 C 216.992 42.903,216.952 42.993,216.804 42.963 C 216.665 42.934,216.564 43.113,216.532 43.449 C 216.491 43.870,216.421 43.960,216.198 43.876 C 215.943 43.781,215.940 43.802,216.167 44.094 C 216.398 44.393,216.395 44.400,216.125 44.188 C 215.965 44.062,215.833 43.776,215.833 43.553 C 215.833 43.308,215.763 43.191,215.656 43.257 C 215.558 43.317,215.497 43.266,215.520 43.142 C 215.584 42.806,215.327 41.833,215.175 41.833 C 215.102 41.833,214.992 41.516,214.930 41.128 C 214.846 40.602,214.778 40.486,214.661 40.670 C 214.552 40.842,214.504 40.657,214.503 40.059 C 214.501 39.426,214.430 39.175,214.231 39.099 C 214.066 39.036,213.994 38.874,214.045 38.679 C 214.101 38.467,214.026 38.336,213.820 38.282 C 213.606 38.226,213.534 38.088,213.584 37.829 C 213.624 37.625,213.546 37.300,213.411 37.108 C 213.277 36.916,213.167 36.630,213.167 36.471 C 213.167 36.313,213.061 36.123,212.932 36.050 C 212.803 35.977,212.658 35.662,212.610 35.350 C 212.561 35.038,212.452 34.738,212.369 34.683 C 212.285 34.628,212.226 34.383,212.238 34.137 C 212.250 33.892,212.183 33.704,212.088 33.721 C 211.994 33.737,211.894 33.479,211.866 33.148 C 211.783 32.156,211.888 32.167,202.409 32.167 L 193.833 32.167 193.839 32.625 M239.779 32.276 C 239.717 32.338,239.667 43.130,239.667 56.257 L 239.667 80.125 240.188 80.229 C 240.808 80.353,257.541 80.371,257.861 80.248 C 258.045 80.178,258.077 76.030,258.044 56.206 L 258.005 32.250 248.948 32.207 C 243.967 32.183,239.841 32.214,239.779 32.276 M354.000 49.508 C 354.000 63.340,354.042 66.828,354.208 66.728 C 354.363 66.635,354.361 66.672,354.199 66.871 C 354.018 67.095,354.025 67.164,354.243 67.286 C 354.424 67.387,354.511 67.700,354.524 68.300 C 354.538 68.913,354.610 69.167,354.772 69.167 C 354.920 69.167,355.000 69.365,355.000 69.732 C 355.000 70.103,355.094 70.334,355.274 70.403 C 355.424 70.461,355.502 70.553,355.447 70.608 C 355.392 70.664,355.456 70.921,355.590 71.180 C 355.724 71.438,355.833 71.804,355.833 71.992 C 355.833 72.184,355.942 72.333,356.083 72.333 C 356.236 72.333,356.333 72.489,356.333 72.732 C 356.333 72.952,356.451 73.176,356.594 73.231 C 356.740 73.287,356.802 73.416,356.735 73.525 C 356.660 73.645,356.688 73.673,356.808 73.599 C 357.003 73.479,357.427 74.254,357.346 74.583 C 357.324 74.675,357.356 74.700,357.417 74.639 C 357.551 74.504,358.167 75.003,358.167 75.246 C 358.167 75.341,358.496 75.680,358.898 76.001 C 359.301 76.321,359.600 76.634,359.563 76.696 C 359.526 76.758,359.646 76.857,359.831 76.916 C 360.016 76.975,360.167 77.130,360.167 77.261 C 360.167 77.393,360.270 77.500,360.396 77.500 C 360.523 77.500,360.719 77.612,360.832 77.748 C 360.945 77.885,361.096 77.960,361.168 77.916 C 361.240 77.871,361.341 77.947,361.394 78.084 C 361.447 78.221,361.646 78.333,361.838 78.333 C 362.030 78.333,362.145 78.401,362.093 78.484 C 361.988 78.654,362.918 79.026,363.069 78.875 C 363.123 78.822,363.167 78.859,363.167 78.958 C 363.167 79.058,363.073 79.177,362.958 79.223 C 362.844 79.269,363.071 79.313,363.464 79.320 C 363.896 79.328,364.211 79.421,364.263 79.557 C 364.310 79.680,364.620 79.790,364.954 79.803 C 365.286 79.815,365.617 79.919,365.687 80.034 C 365.874 80.335,372.769 80.343,372.708 80.042 C 372.682 79.911,372.858 79.833,373.178 79.833 C 373.459 79.833,373.843 79.751,374.031 79.650 C 374.280 79.517,374.343 79.517,374.260 79.650 C 374.198 79.751,374.223 79.833,374.315 79.833 C 374.408 79.833,374.545 79.723,374.621 79.588 C 374.696 79.453,374.940 79.315,375.162 79.281 C 375.384 79.247,375.595 79.133,375.630 79.026 C 375.665 78.920,375.863 78.833,376.069 78.833 C 376.276 78.833,376.501 78.777,376.569 78.708 C 376.638 78.640,376.744 78.573,376.806 78.561 C 377.227 78.476,377.667 78.274,377.667 78.165 C 377.667 78.094,377.775 77.994,377.908 77.943 C 378.181 77.838,378.102 78.166,377.706 78.784 C 377.577 78.987,377.520 79.230,377.579 79.326 C 377.638 79.422,377.608 79.500,377.513 79.500 C 377.418 79.500,377.293 79.687,377.235 79.917 C 377.178 80.146,377.056 80.333,376.964 80.333 C 376.873 80.333,376.841 80.446,376.894 80.583 C 376.946 80.721,376.917 80.833,376.828 80.833 C 376.739 80.833,376.667 80.951,376.667 81.095 C 376.667 81.239,376.573 81.462,376.458 81.589 C 375.955 82.151,375.860 82.304,375.954 82.399 C 376.010 82.455,375.968 82.500,375.861 82.500 C 375.754 82.500,375.685 82.558,375.708 82.628 C 375.731 82.699,375.570 82.942,375.350 83.170 C 375.131 83.397,375.004 83.490,375.069 83.375 C 375.133 83.260,375.143 83.167,375.089 83.167 C 375.036 83.167,374.919 83.359,374.830 83.593 C 374.740 83.828,374.592 83.974,374.500 83.917 C 374.408 83.860,374.333 83.913,374.333 84.034 C 374.333 84.155,374.130 84.403,373.882 84.585 C 373.634 84.768,373.315 85.029,373.174 85.167 C 373.032 85.304,372.748 85.393,372.541 85.363 C 372.321 85.332,372.125 85.414,372.069 85.561 C 372.016 85.700,371.735 85.864,371.444 85.926 C 371.154 85.988,370.826 86.112,370.715 86.201 C 370.604 86.290,370.113 86.380,369.625 86.400 C 369.136 86.420,368.634 86.500,368.509 86.578 C 368.356 86.672,368.321 86.656,368.401 86.526 C 368.575 86.243,368.243 86.291,368.000 86.583 C 367.751 86.884,366.814 86.914,366.531 86.631 C 366.419 86.519,365.828 86.407,365.215 86.380 C 364.577 86.353,364.050 86.247,363.979 86.132 C 363.910 86.022,363.606 85.903,363.303 85.868 C 362.999 85.834,362.669 85.738,362.570 85.656 C 362.471 85.574,362.209 85.476,361.987 85.439 C 361.765 85.402,361.597 85.303,361.613 85.221 C 361.630 85.138,361.461 85.056,361.238 85.037 C 361.016 85.019,360.833 85.082,360.833 85.178 C 360.833 85.274,360.758 85.307,360.667 85.250 C 360.556 85.182,360.500 87.818,360.500 93.033 L 360.500 100.920 360.875 101.168 C 361.081 101.305,361.512 101.455,361.833 101.502 C 362.154 101.549,362.400 101.673,362.381 101.777 C 362.359 101.890,362.548 101.952,362.853 101.931 C 363.132 101.911,363.561 102.003,363.806 102.135 C 364.050 102.266,364.623 102.406,365.079 102.446 C 365.535 102.485,365.950 102.585,366.001 102.668 C 366.117 102.855,365.881 102.845,371.208 102.893 C 374.228 102.920,375.667 102.876,375.669 102.758 C 375.671 102.662,375.744 102.696,375.833 102.833 C 375.971 103.047,375.995 103.041,375.997 102.792 C 375.999 102.612,376.128 102.500,376.333 102.500 C 376.809 102.500,376.764 102.510,377.519 102.243 C 377.898 102.110,378.426 102.000,378.693 102.000 C 378.970 102.000,379.218 101.893,379.273 101.750 C 379.331 101.600,379.582 101.500,379.901 101.500 C 380.194 101.500,380.522 101.411,380.631 101.302 C 380.740 101.194,380.995 101.079,381.199 101.048 C 381.402 101.017,381.613 100.920,381.667 100.833 C 381.720 100.746,381.936 100.649,382.146 100.617 C 382.356 100.585,382.585 100.465,382.655 100.352 C 382.726 100.238,382.913 100.125,383.072 100.102 C 383.230 100.079,383.410 99.979,383.472 99.880 C 383.533 99.781,383.771 99.672,384.000 99.638 C 384.229 99.604,384.399 99.486,384.377 99.377 C 384.354 99.264,384.444 99.219,384.584 99.273 C 384.723 99.327,384.875 99.252,384.933 99.102 C 384.989 98.955,385.098 98.874,385.176 98.922 C 385.253 98.970,385.557 98.745,385.852 98.421 C 386.158 98.085,386.546 97.833,386.757 97.833 C 386.994 97.833,387.161 97.706,387.219 97.483 C 387.270 97.290,387.391 97.183,387.489 97.243 C 387.587 97.304,387.667 97.236,387.667 97.093 C 387.667 96.950,387.779 96.833,387.917 96.833 C 388.054 96.833,388.167 96.713,388.167 96.566 C 388.167 96.397,388.259 96.333,388.415 96.393 C 388.551 96.445,388.646 96.434,388.626 96.369 C 388.542 96.100,390.642 93.965,390.858 94.099 C 390.934 94.146,390.952 94.068,390.897 93.925 C 390.833 93.758,390.892 93.667,391.066 93.667 C 391.213 93.667,391.333 93.554,391.333 93.417 C 391.333 93.279,391.450 93.167,391.593 93.167 C 391.736 93.167,391.804 93.087,391.743 92.989 C 391.682 92.890,391.795 92.768,391.997 92.716 C 392.272 92.644,392.307 92.586,392.139 92.479 C 391.973 92.374,391.969 92.338,392.125 92.336 C 392.240 92.334,392.333 92.221,392.333 92.083 C 392.333 91.946,392.454 91.833,392.601 91.833 C 392.771 91.833,392.834 91.742,392.773 91.583 C 392.706 91.408,392.787 91.333,393.047 91.331 C 393.327 91.329,393.360 91.292,393.183 91.181 C 392.991 91.059,393.013 90.953,393.308 90.577 C 393.505 90.327,393.667 90.014,393.667 89.882 C 393.667 89.751,393.779 89.530,393.917 89.393 C 394.054 89.255,394.167 88.998,394.167 88.821 C 394.167 88.645,394.279 88.500,394.417 88.500 C 394.572 88.500,394.667 88.343,394.667 88.083 C 394.667 87.803,394.762 87.662,394.958 87.654 C 395.119 87.646,395.160 87.604,395.050 87.559 C 394.839 87.473,395.025 86.856,395.420 86.333 C 395.524 86.196,395.618 85.903,395.629 85.682 C 395.641 85.461,395.735 85.227,395.839 85.163 C 395.943 85.099,396.022 84.998,396.014 84.940 C 395.919 84.229,396.025 83.807,396.274 83.903 C 396.484 83.984,396.506 83.958,396.366 83.790 C 396.251 83.651,396.242 83.483,396.340 83.328 C 396.425 83.193,396.496 82.736,396.497 82.312 C 396.499 81.881,396.597 81.461,396.719 81.359 C 396.864 81.239,396.950 80.683,396.973 79.721 C 396.993 78.920,397.063 78.224,397.129 78.174 C 397.296 78.049,397.320 77.333,397.158 77.333 C 397.085 77.333,397.132 77.120,397.262 76.859 C 397.464 76.455,397.493 73.104,397.458 54.317 L 397.417 32.250 388.000 32.250 L 378.583 32.250 378.546 45.832 C 378.515 57.077,378.470 59.444,378.281 59.582 C 378.156 59.675,378.084 59.840,378.121 59.949 C 378.221 60.244,377.858 60.833,377.577 60.833 C 377.443 60.833,377.333 60.941,377.333 61.072 C 377.333 61.367,376.817 61.547,376.413 61.392 C 376.207 61.313,376.150 61.338,376.231 61.470 C 376.307 61.593,376.263 61.629,376.109 61.570 C 375.976 61.519,375.818 61.557,375.757 61.655 C 375.589 61.927,374.882 61.867,374.769 61.572 C 374.708 61.414,374.518 61.331,374.292 61.364 C 374.028 61.402,373.780 61.250,373.458 60.853 C 373.206 60.542,372.996 60.354,372.992 60.435 C 372.988 60.517,372.874 60.269,372.739 59.885 C 372.533 59.297,372.488 57.064,372.456 45.719 L 372.417 32.250 363.208 32.207 L 354.000 32.164 354.000 49.508 " stroke="none" fill="#fcd4d4" fill-rule="evenodd"></path><path id="path1" d="" stroke="none" fill="#100d4d4" fill-rule="evenodd"></path><path id="path2" d="" stroke="none" fill="#100d4d4" fill-rule="evenodd"></path><path id="path3" d="" stroke="none" fill="#100d4d4" fill-rule="evenodd"></path><path id="path4" d="" stroke="none" fill="#100d4d4" fill-rule="evenodd"></path><path id="path5" d="" stroke="none" fill="#100d4d4" fill-rule="evenodd"></path><path id="path6" d="" stroke="none" fill="#100d4d4" fill-rule="evenodd"></path><path id="path7" d="" stroke="none" fill="#100d4d4" fill-rule="evenodd"></path></g></svg>